<?xml version="1.0" encoding="UTF-8"?>
<!-- Generator: visioncortex VTracer 0.6.3 -->
<svg version="1.1" xmlns="http://www.w3.org/2000/svg" width="1280" height="1280">
<path d="M0 0 C1.22 -0.01 1.22 -0.01 2.47 -0.01 C5.17 -0.02 7.86 -0.01 10.56 -0.01 C12.43 -0.01 14.3 -0.01 16.17 -0.01 C20.1 -0.02 24.02 -0.01 27.95 -0 C32.98 0.01 38.01 0 43.05 -0.01 C46.91 -0.02 50.78 -0.01 54.64 -0.01 C56.5 -0.01 58.36 -0.01 60.21 -0.01 C62.81 -0.02 65.4 -0.01 67.99 0 C68.76 -0 69.53 -0.01 70.33 -0.01 C74.09 0.02 75.78 0.12 79 2.26 C81.73 2.72 81.73 2.72 84.68 2.88 C86.17 3 86.17 3 87.7 3.11 C88.45 3.16 89.21 3.21 90 3.26 C90 3.92 90 4.58 90 5.26 C91.45 5.17 91.45 5.17 92.93 5.07 C96.74 5.08 99.74 6.05 103.29 7.34 C106.59 8.46 109.93 9.28 113.31 10.13 C119.09 11.61 124.49 13.54 129.92 16.01 C132.54 17.07 135.06 17.88 137.77 18.65 C142.87 20.14 147.54 22.18 152.31 24.51 C153.12 24.9 153.94 25.29 154.77 25.69 C161.63 29.01 168.35 32.55 175 36.26 C175 36.92 175 37.58 175 38.26 C175.56 38.37 176.12 38.49 176.69 38.61 C184.94 40.94 192.14 46.63 198.98 51.64 C202.21 53.99 205.44 56.21 208.87 58.26 C209.9 58.92 210.93 59.58 212 60.26 C212 60.92 212 61.58 212 62.26 C213.02 62.57 213.02 62.57 214.06 62.88 C217.24 64.37 219.33 66.11 221.92 68.43 C224.33 70.55 226.81 72.56 229.31 74.57 C234.7 78.97 239.86 83.58 245 88.26 C246.66 89.76 248.33 91.26 250 92.76 C251.08 93.73 251.08 93.73 252.18 94.73 C253.93 96.32 253.93 96.32 256 97.26 C256 97.92 256 98.58 256 99.26 C256.66 99.26 257.32 99.26 258 99.26 C258 99.92 258 100.58 258 101.26 C258.66 101.26 259.32 101.26 260 101.26 C261.28 102.73 262.5 104.27 263.68 105.82 C268.34 111.67 273.47 116.86 278.85 122.04 C282.17 125.27 284.74 128.19 287 132.26 C288.21 133.73 289.46 135.17 290.75 136.57 C291.45 137.35 292.15 138.12 292.87 138.92 C293.57 139.69 294.27 140.46 295 141.26 C298.76 145.43 302.2 149.36 305 154.26 C305.83 155.06 305.83 155.06 306.68 155.88 C308 157.26 308 157.26 308 160.26 C308.66 160.26 309.32 160.26 310 160.26 C311.29 161.72 311.29 161.72 312.62 163.63 C313.29 164.57 313.29 164.57 313.97 165.53 C315 167.26 315 167.26 315 169.26 C315.66 169.26 316.32 169.26 317 169.26 C318.03 170.91 319.02 172.58 320 174.26 C320.98 175.6 321.98 176.94 323 178.26 C325.21 181.17 327.19 184.08 329 187.26 C330.87 190.91 330.87 190.91 334 193.26 C334.89 194.86 334.89 194.86 335.81 196.88 C337.51 200.44 339.49 203.51 341.84 206.67 C343.38 208.78 344.67 211.01 346 213.26 C347.08 214.81 347.08 214.81 348.18 216.38 C350 219.26 350 219.26 350 222.26 C350.66 222.26 351.32 222.26 352 222.26 C352 223.58 352 224.9 352 226.26 C352.66 226.26 353.32 226.26 354 226.26 C354.66 228.24 355.32 230.22 356 232.26 C356.66 232.26 357.32 232.26 358 232.26 C358.79 233.82 359.58 235.38 360.37 236.95 C361.03 238.25 361.03 238.25 361.71 239.58 C363 242.26 363 242.26 364.04 244.97 C364.89 247.4 364.89 247.4 367 249.26 C367 250.25 367 251.24 367 252.26 C367.66 252.26 368.32 252.26 369 252.26 C369.51 253.46 370.03 254.65 370.56 255.88 C372.42 260.1 374.47 264.21 376.56 268.32 C379.04 273.21 381.18 278.08 383 283.26 C383.39 284.02 383.78 284.79 384.18 285.57 C385 287.26 385 287.26 385 290.26 C385.66 290.26 386.32 290.26 387 290.26 C387 291.58 387 292.9 387 294.26 C387.66 294.26 388.32 294.26 389 294.26 C391.26 299.71 391.33 304.7 391.31 310.51 C391.32 311.42 391.34 312.33 391.36 313.27 C391.36 314.14 391.36 315 391.36 315.9 C391.36 317.08 391.36 317.08 391.37 318.29 C391.25 318.94 391.12 319.59 391 320.26 C390.01 320.92 389.02 321.58 388 322.26 C387.7 322.91 387.41 323.56 387.11 324.22 C384.8 328.44 379.31 329.67 375 331.26 C371.91 332.12 368.82 332.87 365.7 333.58 C362.29 334.44 359.22 335.85 356 337.26 C350.35 339.08 344.99 340.74 339 340.26 C339 340.92 339 341.58 339 342.26 C338.14 342.46 337.29 342.67 336.41 342.88 C335.3 343.15 334.2 343.42 333.06 343.7 C331.96 343.96 330.85 344.23 329.72 344.5 C327.1 344.99 327.1 344.99 326 346.26 C323.66 346.59 321.33 346.93 319 347.26 C318.67 347.59 318.34 347.92 318 348.26 C316.96 348.4 315.93 348.55 314.87 348.7 C311.02 349.17 311.02 349.17 307.5 350.26 C304 351.26 300.59 351.76 297 352.26 C296.67 352.59 296.34 352.92 296 353.26 C293.66 353.59 291.33 353.93 289 354.26 C288.67 354.59 288.34 354.92 288 355.26 C285.66 355.59 283.33 355.93 281 356.26 C280.67 356.59 280.34 356.92 280 357.26 C277.94 357.58 275.88 357.77 273.81 357.98 C271.98 358.08 271.98 358.08 271 359.26 C268.42 359.58 265.84 359.77 263.25 359.98 C261.03 360.02 261.03 360.02 260 361.26 C257.02 361.81 254.05 362.3 251.06 362.76 C250.2 362.89 249.33 363.03 248.44 363.17 C243.93 363.86 239.42 364.47 234.87 364.88 C231.22 364.82 231.22 364.82 230 366.26 C227.85 366.47 225.71 366.63 223.56 366.76 C219.12 366.9 219.12 366.9 215 368.26 C213.63 368.4 212.27 368.48 210.9 368.54 C210.1 368.58 209.3 368.61 208.47 368.65 C206.78 368.72 205.08 368.79 203.38 368.86 C199.37 368.66 199.37 368.66 196 370.26 C194.36 370.42 192.72 370.51 191.09 370.58 C190.1 370.62 189.11 370.66 188.09 370.7 C187.05 370.74 186.01 370.78 184.93 370.82 C183.89 370.86 182.84 370.91 181.77 370.95 C179.18 371.06 176.59 371.16 174 371.26 C174.42 372.17 174.42 372.17 174.84 373.1 C175.39 374.31 175.39 374.31 175.95 375.54 C176.31 376.33 176.67 377.12 177.05 377.94 C178.17 380.69 178.69 383.32 179 386.26 C179.66 386.26 180.32 386.26 181 386.26 C181 387.58 181 388.9 181 390.26 C181.66 390.26 182.32 390.26 183 390.26 C186.07 395.9 187.86 400.95 189 407.26 C189.31 408.77 189.31 408.77 189.62 410.32 C189.81 411.28 189.81 411.28 190 412.26 C190.66 412.26 191.32 412.26 192 412.26 C193.42 416.08 194.24 419.17 194 423.26 C194.66 423.26 195.32 423.26 196 423.26 C198.83 429.72 201.3 436.18 202 443.26 C201.67 443.92 201.34 444.58 201 445.26 C201.66 445.26 202.32 445.26 203 445.26 C204.42 449.08 205.24 452.17 205 456.26 C205.66 456.26 206.32 456.26 207 456.26 C207.1 457.27 207.2 458.28 207.31 459.32 C207.9 462.7 208.8 465.03 210.23 468.09 C211.94 472.92 212.57 478.17 213 483.26 C212.67 483.92 212.34 484.58 212 485.26 C212.66 485.26 213.32 485.26 214 485.26 C214 487.9 214 490.54 214 493.26 C214.66 493.26 215.32 493.26 216 493.26 C216.14 494.39 216.28 495.53 216.43 496.7 C216.61 500.07 216.61 500.07 218 501.26 C218.32 503.84 218.51 506.42 218.71 509.01 C218.76 511.23 218.76 511.23 220 512.26 C220.32 514.84 220.51 517.42 220.71 520.01 C220.76 522.23 220.76 522.23 222 523.26 C222.2 524.9 222.36 526.55 222.5 528.2 C222.75 531.86 222.75 531.86 224 535.26 C224.07 536.62 224.08 537.99 224.06 539.36 C224.05 540.16 224.04 540.96 224.04 541.78 C224.02 543.04 224.02 543.04 224 544.32 C223.95 547.31 223.95 550.27 224 553.26 C224.33 553.59 224.66 553.92 225 554.26 C225.14 556.1 225.22 557.94 225.28 559.79 C225.31 560.91 225.35 562.03 225.39 563.18 C225.46 565.57 225.53 567.95 225.6 570.33 C225.64 571.45 225.68 572.57 225.71 573.73 C225.75 574.76 225.78 575.8 225.81 576.87 C225.73 579.21 225.73 579.21 227 580.26 C227.09 581.98 227.11 583.7 227.11 585.42 C227.11 587.07 227.11 587.07 227.11 588.76 C227.1 589.96 227.1 591.15 227.09 592.39 C227.09 593.61 227.09 594.83 227.09 596.08 C227.08 600 227.07 603.91 227.06 607.82 C227.05 610.47 227.05 613.11 227.04 615.76 C227.03 622.26 227.02 628.76 227 635.26 C226.34 635.26 225.68 635.26 225 635.26 C225 635.95 225.01 636.63 225.01 637.34 C225.03 640.44 225.05 643.54 225.06 646.63 C225.07 647.71 225.08 648.79 225.08 649.91 C225.09 650.94 225.09 651.97 225.09 653.03 C225.1 653.99 225.1 654.94 225.11 655.92 C225 658.26 225 658.26 224 660.26 C223.95 662.61 223.96 664.97 224 667.32 C224.03 669.63 224.04 671.95 224 674.26 C223.67 674.59 223.34 674.92 223 675.26 C222.79 677.25 222.63 679.26 222.5 681.26 C222.11 687.15 222.11 687.15 221 688.26 C220.76 690.11 220.58 691.96 220.43 693.82 C220.35 694.83 220.27 695.85 220.18 696.89 C220.09 698.06 220.09 698.06 220 699.26 C219.34 699.26 218.68 699.26 218 699.26 C218 702.23 218 705.2 218 708.26 C217.34 708.26 216.68 708.26 216 708.26 C216.01 708.9 216.02 709.53 216.03 710.19 C216.04 711.43 216.04 711.43 216.06 712.7 C216.07 713.52 216.08 714.34 216.09 715.19 C216 717.26 216 717.26 215 718.26 C214.63 720.59 214.29 722.92 214 725.26 C213.34 725.26 212.68 725.26 212 725.26 C212.18 725.98 212.36 726.69 212.55 727.43 C213.03 730.46 212.77 732.53 212.12 735.51 C211.85 736.82 211.85 736.82 211.57 738.15 C211 740.26 211 740.26 210 741.26 C209.85 742.31 209.71 743.36 209.56 744.45 C209.04 747.94 208.21 750.95 207 754.26 C206.34 754.26 205.68 754.26 205 754.26 C205 756.24 205 758.22 205 760.26 C204.34 760.26 203.68 760.26 203 760.26 C203.06 761.81 203.06 761.81 203.12 763.38 C203 767.25 202.34 769.66 201 773.26 C200.49 774.92 199.99 776.59 199.5 778.26 C198.4 781.95 197.24 785.61 196 789.26 C195.34 789.26 194.68 789.26 194 789.26 C194 790.58 194 791.9 194 793.26 C193.34 793.26 192.68 793.26 192 793.26 C192.05 794.35 192.05 794.35 192.11 795.46 C191.99 798.44 191.36 800.34 190.18 803.07 C188.89 806.13 187.65 809.18 186.56 812.32 C185.48 815.26 184.13 817.87 182.56 820.57 C180.19 824.69 178.65 828.85 177.11 833.33 C175.15 838.5 172.56 843.36 170 848.26 C169.34 848.26 168.68 848.26 168 848.26 C168 849.58 168 850.9 168 852.26 C167.34 852.26 166.68 852.26 166 852.26 C165.89 852.8 165.79 853.33 165.68 853.88 C164.82 856.89 163.48 859.48 162.06 862.26 C161.53 863.29 161.01 864.32 160.47 865.38 C159.74 866.81 159.74 866.81 159 868.26 C158.33 869.59 157.66 870.92 157 872.26 C156.34 872.26 155.68 872.26 155 872.26 C155 873.58 155 874.9 155 876.26 C154.34 876.59 153.68 876.92 153 877.26 C152.85 877.9 152.71 878.54 152.56 879.2 C152 881.26 152 881.26 149 883.26 C148.27 885.32 148.27 885.32 148 887.26 C147.34 887.26 146.68 887.26 146 887.26 C145.73 887.98 145.46 888.69 145.18 889.43 C143.99 892.28 142.62 894.85 141.06 897.51 C140.55 898.38 140.05 899.25 139.53 900.15 C138 902.26 138 902.26 135 903.26 C134.31 904.58 133.65 905.92 133 907.26 C129.89 910.77 127.2 912.9 122.52 913.67 C116.15 913.89 112.03 913.01 106.95 909.08 C102.84 905.25 100.33 901.98 99.63 896.29 C99.51 890.95 99.8 886.21 102 881.26 C102.66 881.26 103.32 881.26 104 881.26 C104.08 880.72 104.16 880.19 104.25 879.63 C105.05 877.08 106.3 875.21 107.83 873.02 C109.16 871.02 110.29 868.94 111.43 866.82 C113.05 863.86 114.75 861.1 116.75 858.38 C119.1 855.44 119.1 855.44 120 852.26 C120.66 852.26 121.32 852.26 122 852.26 C122 850.94 122 849.62 122 848.26 C122.66 848.26 123.32 848.26 124 848.26 C124.1 847.72 124.2 847.19 124.31 846.63 C125.18 843.63 126.51 841.04 127.93 838.26 C128.46 837.23 128.98 836.2 129.52 835.13 C130.25 833.71 130.25 833.71 131 832.26 C131.66 830.93 132.33 829.59 133 828.26 C133.66 828.26 134.32 828.26 135 828.26 C135 826.94 135 825.62 135 824.26 C135.66 824.26 136.32 824.26 137 824.26 C137.12 823.7 137.25 823.15 137.38 822.57 C138.05 820.04 138.95 817.69 139.93 815.26 C140.27 814.41 140.61 813.57 140.96 812.7 C141.89 810.5 142.9 808.38 144 806.26 C144.66 806.26 145.32 806.26 146 806.26 C146 804.94 146 803.62 146 802.26 C146.66 802.26 147.32 802.26 148 802.26 C147.87 801.27 147.87 801.27 147.75 800.26 C148.05 796.63 149.34 794.36 151.04 791.2 C152.16 788.92 152.68 786.77 153 784.26 C153.66 784.26 154.32 784.26 155 784.26 C155 782.28 155 780.3 155 778.26 C155.66 778.26 156.32 778.26 157 778.26 C157 776.94 157 775.62 157 774.26 C157.66 774.26 158.32 774.26 159 774.26 C158.93 773.21 158.93 773.21 158.87 772.13 C159.02 768.8 159.87 766.4 161 763.26 C161.78 760.62 162.55 757.98 163.31 755.33 C164 753.26 164 753.26 165 752.26 C165.36 749.93 165.7 747.6 166 745.26 C166.66 745.26 167.32 745.26 168 745.26 C167.93 744.21 167.93 744.21 167.87 743.13 C168.01 739.88 168.86 737.3 170 734.26 C170.66 734.26 171.32 734.26 172 734.26 C171.97 732.59 171.97 732.59 171.93 730.88 C172 727.26 172 727.26 173 725.26 C172.93 724.21 172.93 724.21 172.87 723.13 C173.02 719.78 174.02 717.41 175.27 714.33 C176.31 711.37 176.62 708.36 177 705.26 C177.33 704.93 177.66 704.6 178 704.26 C178.2 702.93 178.36 701.6 178.5 700.26 C178.88 696.37 178.88 696.37 180 695.26 C180.23 693.41 180.41 691.55 180.56 689.7 C180.64 688.68 180.73 687.67 180.81 686.63 C180.87 685.85 180.93 685.06 181 684.26 C181.66 684.26 182.32 684.26 183 684.26 C182.81 683 182.62 681.74 182.43 680.45 C181.99 677.43 182 676.25 183 673.26 C183.3 670.13 183.5 667.01 183.71 663.88 C184 661.26 184 661.26 185 660.26 C185.14 658.71 185.22 657.16 185.28 655.6 C185.33 654.19 185.33 654.19 185.39 652.75 C185.43 651.77 185.46 650.78 185.5 649.76 C185.56 647.81 185.64 645.86 185.71 643.92 C185.76 642.61 185.76 642.61 185.81 641.28 C186 639.26 186 639.26 187 638.26 C187.1 636.27 187.12 634.28 187.13 632.29 C187.13 631.01 187.13 629.73 187.14 628.41 C187.13 627.01 187.13 625.6 187.13 624.2 C187.13 622.77 187.13 621.33 187.13 619.9 C187.13 616.9 187.13 613.9 187.13 610.89 C187.12 607.04 187.12 603.18 187.13 599.32 C187.13 596.37 187.13 593.41 187.13 590.45 C187.13 589.03 187.13 587.61 187.13 586.19 C187.13 584.2 187.13 582.22 187.13 580.23 C187.12 579.1 187.12 577.97 187.12 576.8 C187.28 574.32 187.28 574.32 186 573.26 C185.85 571.86 185.77 570.45 185.71 569.04 C185.68 568.19 185.64 567.34 185.6 566.47 C185.53 564.66 185.46 562.86 185.39 561.05 C185.35 560.2 185.32 559.35 185.28 558.48 C185.25 557.69 185.22 556.91 185.19 556.1 C185.19 554.24 185.19 554.24 184 553.26 C183.78 551.2 183.62 549.14 183.5 547.07 C183.41 545.82 183.33 544.56 183.25 543.27 C183.12 541.26 183 539.25 182.87 537.24 C182.75 535.31 182.62 533.38 182.5 531.45 C182.42 530.28 182.35 529.12 182.28 527.93 C182.29 525.34 182.29 525.34 181 524.26 C180.92 522.74 180.91 521.22 180.93 519.7 C180.94 518.87 180.95 518.04 180.96 517.19 C180.98 516.24 180.98 516.24 181 515.26 C180.34 515.26 179.68 515.26 179 515.26 C178.94 514.62 178.87 513.98 178.81 513.33 C178.73 512.5 178.64 511.67 178.56 510.82 C178.48 510 178.4 509.17 178.31 508.33 C178.21 506.27 178.21 506.27 177 505.26 C176.87 504.06 176.75 502.87 176.62 501.63 C176.3 498.65 175.71 496.29 174.43 493.57 C173.05 490.39 172.8 488.65 173 485.26 C172.67 484.93 172.34 484.6 172 484.26 C171.66 481.93 171.33 479.59 171 477.26 C170.67 476.93 170.34 476.6 170 476.26 C169.96 473.93 169.95 471.59 170 469.26 C169.34 469.26 168.68 469.26 168 469.26 C167.79 468.48 167.59 467.69 167.38 466.89 C167.11 465.88 166.84 464.86 166.56 463.82 C166.16 462.31 166.16 462.31 165.75 460.76 C165.24 458.34 165.24 458.34 164 457.26 C163.96 455.59 163.95 453.92 164 452.26 C163.34 452.26 162.68 452.26 162 452.26 C161.86 451.55 161.73 450.84 161.59 450.11 C161.42 449.19 161.24 448.27 161.06 447.32 C160.88 446.4 160.71 445.49 160.53 444.54 C160.22 442.31 160.22 442.31 159 441.26 C158.96 439.59 158.95 437.92 159 436.26 C158.34 436.26 157.68 436.26 157 436.26 C156.79 435.62 156.59 434.98 156.38 434.33 C156.11 433.5 155.84 432.67 155.56 431.82 C155.16 430.59 155.16 430.59 154.75 429.33 C154.17 427.3 154.17 427.3 153 426.26 C152.96 424.59 152.95 422.92 153 421.26 C152.34 421.26 151.68 421.26 151 421.26 C150.67 418.95 150.34 416.64 150 414.26 C149.34 414.26 148.68 414.26 148 414.26 C147.62 413.02 147.25 411.78 146.87 410.51 C145.17 405.34 142.75 400.66 140.2 395.86 C139 393.26 139 393.26 139 390.26 C138.34 390.26 137.68 390.26 137 390.26 C135.66 387.64 134.33 385.01 133 382.38 C132.61 381.64 132.23 380.89 131.84 380.12 C131.3 379.05 131.3 379.05 130.75 377.95 C130.41 377.29 130.08 376.63 129.73 375.95 C129 374.26 129 374.26 129 372.26 C127.24 372.28 127.24 372.28 125.45 372.29 C123.9 372.3 122.36 372.31 120.81 372.32 C120.04 372.33 119.27 372.34 118.48 372.35 C114.48 372.36 110.92 372.11 107 371.26 C103.72 371.01 100.45 370.82 97.17 370.65 C92.1 370.36 92.1 370.36 91 369.26 C88.83 369.05 86.67 368.89 84.5 368.76 C78.11 368.37 78.11 368.37 77 367.26 C75.33 367.05 73.67 366.89 72 366.76 C67.11 366.37 67.11 366.37 66 365.26 C63.66 364.95 61.34 364.69 59 364.45 C52.9 363.75 46.97 362.73 41 361.32 C40.32 361.16 39.63 361.01 38.93 360.84 C34.77 359.83 30.83 358.5 26.84 356.95 C24.45 356.05 22.03 355.39 19.56 354.76 C14.62 353.44 9.81 351.97 5 350.26 C3.78 349.83 2.56 349.39 1.3 348.95 C-7.12 345.9 -15.06 342.41 -23 338.26 C-25.31 337.11 -27.63 335.96 -29.94 334.82 C-53.38 323.09 -53.38 323.09 -60 318.26 C-60 317.6 -60 316.94 -60 316.26 C-60.6 316.14 -61.2 316.01 -61.82 315.88 C-64 315.26 -64 315.26 -67 313.26 C-67 312.6 -67 311.94 -67 311.26 C-67.84 311.13 -67.84 311.13 -68.7 311 C-71.68 310.04 -73.48 308.46 -75.88 306.45 C-78.72 304.1 -81.5 301.84 -84.63 299.88 C-85.41 299.35 -86.2 298.81 -87 298.26 C-87 297.6 -87 296.94 -87 296.26 C-87.87 295.86 -87.87 295.86 -88.75 295.45 C-97.19 291 -103.94 283.53 -110.63 276.88 C-111.45 276.07 -112.27 275.26 -113.11 274.43 C-113.87 273.66 -114.63 272.9 -115.42 272.11 C-116.45 271.07 -116.45 271.07 -117.51 270.01 C-119 268.26 -119 268.26 -119 266.26 C-119.66 266.26 -120.32 266.26 -121 266.26 C-121.92 264.86 -122.84 263.46 -123.73 262.04 C-125.17 260.03 -126.78 258.41 -128.57 256.7 C-131.29 254.05 -133.14 251.58 -135 248.26 C-137.43 244.88 -139.99 241.59 -142.52 238.28 C-146.22 233.4 -149.64 228.38 -153 223.26 C-153.71 222.23 -154.41 221.2 -155.13 220.13 C-161 211.13 -161 211.13 -161 206.26 C-161.66 206.26 -162.32 206.26 -163 206.26 C-163 204.94 -163 203.62 -163 202.26 C-163.66 202.26 -164.32 202.26 -165 202.26 C-166.46 199.61 -167 198.36 -167 195.26 C-167.66 195.26 -168.32 195.26 -169 195.26 C-169.27 194.56 -169.54 193.86 -169.82 193.13 C-170.98 190.18 -170.98 190.18 -172.63 187.2 C-174 184.26 -174 184.26 -174 180.26 C-174.66 180.26 -175.32 180.26 -176 180.26 C-176.28 179.37 -176.28 179.37 -176.55 178.47 C-176.81 177.68 -177.06 176.89 -177.32 176.07 C-177.68 174.91 -177.68 174.91 -178.05 173.72 C-178.94 171.2 -178.94 171.2 -180.48 168.88 C-182.25 165.83 -183.16 162.89 -184.13 159.51 C-184.99 155.58 -184.99 155.58 -187 152.26 C-187.04 150.59 -187.05 148.92 -187 147.26 C-187.66 147.26 -188.32 147.26 -189 147.26 C-190.76 142.76 -191.2 139.08 -191 134.26 C-191.66 134.26 -192.32 134.26 -193 134.26 C-193.66 131.29 -194.32 128.32 -195 125.26 C-195.97 125.28 -196.94 125.3 -197.94 125.32 C-201 125.26 -201 125.26 -202 124.26 C-203.82 123.9 -205.64 123.6 -207.46 123.32 C-208.58 123.15 -209.69 122.98 -210.83 122.8 C-212 122.62 -213.17 122.44 -214.38 122.26 C-216.68 121.91 -218.98 121.55 -221.28 121.2 C-222.3 121.04 -223.33 120.88 -224.38 120.72 C-227 120.26 -227 120.26 -230 119.26 C-233.62 118.95 -237.23 118.75 -240.85 118.54 C-244 118.26 -244 118.26 -246 117.26 C-248.33 117.05 -250.67 116.89 -253 116.76 C-259.78 116.37 -259.78 116.37 -262 115.26 C-264.59 115.16 -267.15 115.12 -269.74 115.13 C-270.54 115.13 -271.34 115.13 -272.16 115.12 C-274.81 115.12 -277.46 115.12 -280.1 115.13 C-281.93 115.13 -283.77 115.12 -285.6 115.12 C-289.45 115.12 -293.29 115.12 -297.13 115.13 C-302.07 115.13 -307.01 115.13 -311.95 115.12 C-315.74 115.12 -319.52 115.12 -323.31 115.12 C-325.13 115.13 -326.95 115.12 -328.77 115.12 C-331.31 115.12 -333.85 115.12 -336.39 115.13 C-337.15 115.13 -337.91 115.13 -338.7 115.12 C-342.14 114.83 -342.14 114.83 -345 116.26 C-347.82 116.47 -350.62 116.64 -353.44 116.76 C-358.89 116.77 -358.89 116.77 -364 118.26 C-366 118.44 -368 118.58 -370 118.7 C-374.99 119.04 -379.7 119.71 -384.57 120.79 C-388.05 121.46 -391.54 121.74 -395.07 122.01 C-397.01 122.06 -397.01 122.06 -398 123.26 C-400.36 123.51 -402.71 123.64 -405.07 123.78 C-408.17 124.29 -410.84 125.31 -413.75 126.45 C-417.92 127.95 -422.25 128.84 -426.57 129.82 C-428.38 130.24 -430.19 130.66 -432.01 131.08 C-432.86 131.27 -433.72 131.47 -434.6 131.67 C-436.74 132.2 -438.86 132.78 -440.97 133.4 C-443.83 134.21 -446.06 134.44 -449 134.26 C-449 134.92 -449 135.58 -449 136.26 C-449.72 136.44 -450.43 136.62 -451.16 136.81 C-455.46 137.94 -459.54 139.06 -463.63 140.82 C-466.37 141.99 -468.44 142.6 -471.32 143.13 C-475.75 144.04 -479.3 145.8 -483.28 147.9 C-487.31 149.91 -491.51 151.43 -495.72 153.02 C-504.17 156.21 -512.22 159.79 -520.15 164.11 C-524.74 166.6 -529.38 168.96 -534.07 171.26 C-546.07 177.19 -557.86 183.83 -569 191.26 C-569.99 191.26 -570.98 191.26 -572 191.26 C-572 191.92 -572 192.58 -572 193.26 C-572.66 193.26 -573.32 193.26 -574 193.26 C-574 193.92 -574 194.58 -574 195.26 C-575.65 196.29 -577.33 197.28 -579 198.26 C-581.01 199.73 -582.98 201.24 -584.94 202.76 C-587 204.26 -587 204.26 -589.33 205.65 C-597.4 210.51 -605.14 216.23 -612.11 222.57 C-614.22 224.45 -616.41 226.2 -618.63 227.95 C-630.04 237.03 -640.73 246.66 -651.01 257 C-652.89 258.9 -654.78 260.78 -656.68 262.66 C-662.72 268.7 -668.46 274.7 -673.56 281.58 C-674.27 282.41 -674.27 282.41 -675 283.26 C-675.66 283.26 -676.32 283.26 -677 283.26 C-677.34 284.03 -677.34 284.03 -677.69 284.82 C-679.49 288.15 -681.5 291.41 -684 294.26 C-684.66 294.26 -685.32 294.26 -686 294.26 C-686 294.92 -686 295.58 -686 296.26 C-686.66 296.26 -687.32 296.26 -688 296.26 C-688.25 297 -688.5 297.74 -688.75 298.51 C-690.12 301.5 -691.66 302.99 -694 305.26 C-695.02 306.92 -696.02 308.58 -697 310.26 C-698 311.26 -699 312.26 -700 313.26 C-700.44 313.98 -700.87 314.7 -701.32 315.45 C-702.77 317.87 -704.3 320.02 -706 322.26 C-707.63 324.39 -709.12 326.45 -710.5 328.76 C-712.34 331.83 -714.5 334.58 -716.7 337.39 C-718.19 339.33 -718.19 339.33 -719 342.26 C-719.66 342.26 -720.32 342.26 -721 342.26 C-721.19 343.09 -721.19 343.09 -721.38 343.95 C-722.06 346.48 -723 348.84 -724 351.26 C-724.66 351.26 -725.32 351.26 -726 351.26 C-726.09 351.8 -726.17 352.33 -726.25 352.88 C-727.04 355.38 -728.25 357.14 -729.75 359.27 C-732.55 363.71 -734.71 368.54 -737 373.26 C-737.66 373.26 -738.32 373.26 -739 373.26 C-739 374.58 -739 375.9 -739 377.26 C-739.66 377.26 -740.32 377.26 -741 377.26 C-741 378.58 -741 379.9 -741 381.26 C-741.66 381.26 -742.32 381.26 -743 381.26 C-743.11 382.12 -743.21 382.98 -743.31 383.86 C-744.06 387.54 -745.33 390.31 -747.07 393.63 C-747.61 394.69 -748.16 395.75 -748.73 396.84 C-749.15 397.64 -749.57 398.44 -750 399.26 C-750.66 399.26 -751.32 399.26 -752 399.26 C-751.92 399.92 -751.84 400.58 -751.75 401.26 C-752.05 404.81 -753.25 406.95 -754.91 410.06 C-756.69 413.65 -757.84 417.43 -759 421.26 C-759.66 421.26 -760.32 421.26 -761 421.26 C-761.13 421.86 -761.25 422.47 -761.37 423.09 C-761.54 423.89 -761.71 424.69 -761.88 425.51 C-762.04 426.3 -762.2 427.09 -762.37 427.9 C-763 430.23 -763.85 432.15 -765 434.26 C-765.66 434.26 -766.32 434.26 -767 434.26 C-766.96 434.96 -766.92 435.66 -766.88 436.38 C-767.02 439.71 -767.89 442.11 -769 445.26 C-770.04 448.92 -771.02 452.59 -772 456.26 C-772.66 456.26 -773.32 456.26 -774 456.26 C-773.94 456.9 -773.88 457.54 -773.82 458.2 C-774.15 463.57 -776.35 468.48 -778.19 473.51 C-779 476.25 -779.08 478.42 -779 481.26 C-779.33 481.59 -779.66 481.92 -780 482.26 C-780.37 484.59 -780.71 486.92 -781 489.26 C-781.66 489.26 -782.32 489.26 -783 489.26 C-782.98 490.39 -782.96 491.53 -782.94 492.7 C-783 496.26 -783 496.26 -784 497.26 C-784.37 499.59 -784.71 501.92 -785 504.26 C-785.66 504.26 -786.32 504.26 -787 504.26 C-787 507.23 -787 510.2 -787 513.26 C-787.66 513.26 -788.32 513.26 -789 513.26 C-788.99 514.03 -788.98 514.8 -788.97 515.59 C-788.96 516.6 -788.95 517.6 -788.94 518.63 C-788.93 519.63 -788.92 520.63 -788.91 521.66 C-789 524.26 -789 524.26 -790 526.26 C-790.05 527.61 -790.04 528.97 -790 530.32 C-790 531.62 -790 532.92 -790 534.26 C-790.33 534.59 -790.66 534.92 -791 535.26 C-791.24 537.44 -791.42 539.63 -791.57 541.82 C-791.65 543.02 -791.73 544.22 -791.82 545.45 C-791.88 546.38 -791.94 547.3 -792 548.26 C-792.66 548.26 -793.32 548.26 -794 548.26 C-794 548.86 -793.99 549.46 -793.99 550.08 C-793.97 552.78 -793.95 555.49 -793.94 558.2 C-793.93 559.14 -793.92 560.09 -793.92 561.06 C-793.91 561.96 -793.91 562.86 -793.91 563.79 C-793.9 564.62 -793.9 565.45 -793.89 566.31 C-794 568.26 -794 568.26 -795 569.26 C-795.13 571.6 -795.19 573.91 -795.21 576.26 C-795.22 576.99 -795.23 577.72 -795.24 578.47 C-795.27 580.9 -795.3 583.33 -795.32 585.76 C-795.34 587.44 -795.36 589.12 -795.38 590.8 C-795.44 595.23 -795.49 599.66 -795.54 604.09 C-795.59 608.61 -795.64 613.13 -795.7 617.65 C-795.8 626.52 -795.91 635.39 -796 644.26 C-795.34 644.26 -794.68 644.26 -794 644.26 C-793.94 645.26 -793.88 646.26 -793.82 647.29 C-793.74 648.58 -793.65 649.87 -793.57 651.2 C-793.49 652.48 -793.4 653.77 -793.32 655.1 C-793.35 658.12 -793.35 658.12 -792 659.26 C-791.73 662.68 -791.56 666.1 -791.4 669.53 C-791.54 673.2 -791.54 673.2 -790 676.26 C-789.77 683.78 -789.77 683.78 -791 686.26 C-790.34 686.26 -789.68 686.26 -789 686.26 C-789 689.23 -789 692.2 -789 695.26 C-788.34 695.26 -787.68 695.26 -787 695.26 C-786.91 696.22 -786.91 696.22 -786.82 697.19 C-786.74 698.02 -786.65 698.84 -786.57 699.7 C-786.49 700.52 -786.4 701.34 -786.32 702.19 C-786.21 704.25 -786.21 704.25 -785 705.26 C-784.93 706.78 -784.92 708.3 -784.94 709.82 C-784.95 710.65 -784.96 711.47 -784.97 712.33 C-784.98 712.96 -784.99 713.6 -785 714.26 C-784.34 714.26 -783.68 714.26 -783 714.26 C-782.85 715.74 -782.85 715.74 -782.69 717.26 C-782.3 720.05 -781.62 722.46 -780.57 725.07 C-778.75 729.64 -777.55 734.37 -777 739.26 C-777.33 739.92 -777.66 740.58 -778 741.26 C-777.34 741.26 -776.68 741.26 -776 741.26 C-775.85 742.77 -775.85 742.77 -775.69 744.32 C-775.15 748.3 -775.15 748.3 -773.44 751.88 C-772.09 755.06 -771.7 756.87 -772 760.26 C-771.34 760.26 -770.68 760.26 -770 760.26 C-766.56 769.67 -766.56 769.67 -767 774.26 C-766.34 774.26 -765.68 774.26 -765 774.26 C-765 776.24 -765 778.22 -765 780.26 C-764.34 780.26 -763.68 780.26 -763 780.26 C-762.83 780.82 -762.66 781.37 -762.49 781.95 C-761.2 785.99 -759.83 789.76 -757.82 793.51 C-756.21 796.56 -755.57 798.75 -756 802.26 C-755.34 802.26 -754.68 802.26 -754 802.26 C-749.41 810.52 -749.41 810.52 -750 815.26 C-749.34 815.26 -748.68 815.26 -748 815.26 C-748 816.58 -748 817.9 -748 819.26 C-747.34 819.26 -746.68 819.26 -746 819.26 C-743 824.88 -743 824.88 -743 828.26 C-742.34 828.26 -741.68 828.26 -741 828.26 C-739.83 830.5 -738.66 832.75 -737.5 835.01 C-737.17 835.64 -736.84 836.28 -736.49 836.93 C-734.73 840.38 -734 842.31 -734 846.26 C-733.34 846.26 -732.68 846.26 -732 846.26 C-732 847.58 -732 848.9 -732 850.26 C-731.34 850.26 -730.68 850.26 -730 850.26 C-727.51 853.34 -726.11 855.49 -725.57 859.45 C-726.07 862.71 -726.66 863.09 -729 865.26 C-730.15 867.55 -731.06 869.88 -732 872.26 C-732.66 872.26 -733.32 872.26 -734 872.26 C-734.99 875.23 -735.98 878.2 -737 881.26 C-737.66 881.26 -738.32 881.26 -739 881.26 C-739 882.58 -739 883.9 -739 885.26 C-739.66 885.26 -740.32 885.26 -741 885.26 C-741 886.58 -741 887.9 -741 889.26 C-741.66 889.26 -742.32 889.26 -743 889.26 C-742.98 890.04 -742.96 890.83 -742.94 891.63 C-743 894.26 -743 894.26 -744 896.26 C-744.15 897 -744.29 897.74 -744.44 898.51 C-745 901.26 -745 901.26 -746 904 C-747.06 907.46 -747.41 910.53 -747.63 914.13 C-747.7 915.29 -747.78 916.44 -747.86 917.63 C-747.93 918.93 -747.93 918.93 -748 920.26 C-748.66 920.26 -749.32 920.26 -750 920.26 C-749.87 924.4 -749.72 928.55 -749.57 932.7 C-749.53 933.88 -749.49 935.06 -749.45 936.28 C-749.41 937.41 -749.36 938.53 -749.32 939.69 C-749.28 940.73 -749.25 941.78 -749.21 942.85 C-749.27 945.21 -749.27 945.21 -748 946.26 C-747.67 948.59 -747.34 950.93 -747 953.26 C-746.67 953.59 -746.34 953.92 -746 954.26 C-745.77 956.22 -745.54 958.17 -745.32 960.13 C-745.03 962.47 -745.03 962.47 -743.94 965.45 C-743.01 968.25 -742.83 970.33 -743 973.26 C-742.34 973.26 -741.68 973.26 -741 973.26 C-741 974.58 -741 975.9 -741 977.26 C-740.34 977.26 -739.68 977.26 -739 977.26 C-738.78 978.06 -738.55 978.87 -738.32 979.7 C-734.53 989.97 -728.04 999.21 -720.74 1007.27 C-718.43 1009.92 -716.39 1012.73 -714.36 1015.59 C-712.92 1017.53 -712.92 1017.53 -710 1019.26 C-710 1019.92 -710 1020.58 -710 1021.26 C-709.32 1021.47 -708.64 1021.67 -707.94 1021.88 C-705 1023.26 -705 1023.26 -702.19 1025.82 C-693.69 1033.38 -682.59 1038.42 -671.97 1042.19 C-669 1043.26 -669 1043.26 -665.65 1044.82 C-661.61 1046.42 -658.04 1046.98 -653.75 1047.38 C-646.3 1048.16 -646.3 1048.16 -643 1049.26 C-641.11 1049.35 -639.21 1049.39 -637.31 1049.39 C-636.2 1049.39 -635.09 1049.39 -633.95 1049.4 C-632.21 1049.39 -632.21 1049.39 -630.44 1049.38 C-629.28 1049.39 -628.12 1049.39 -626.92 1049.4 C-625.81 1049.39 -624.7 1049.39 -623.56 1049.39 C-622.04 1049.39 -622.04 1049.39 -620.48 1049.39 C-618 1049.42 -618 1049.42 -616 1048.26 C-612.74 1047.85 -609.48 1047.49 -606.21 1047.18 C-601.27 1046.64 -597.51 1045.36 -593 1043.26 C-591.68 1042.84 -590.34 1042.44 -589 1042.07 C-581.32 1039.59 -574.02 1035.32 -567.14 1031.12 C-562.23 1028.15 -559.57 1027.87 -554 1028.26 C-554 1028.92 -554 1029.58 -554 1030.26 C-553.42 1030.38 -552.84 1030.51 -552.25 1030.64 C-549.98 1031.26 -548.2 1032.1 -546.14 1033.22 C-545.42 1033.61 -544.7 1034 -543.95 1034.4 C-543.21 1034.81 -542.46 1035.21 -541.69 1035.63 C-536.54 1038.44 -531.43 1041.04 -526 1043.26 C-526 1043.92 -526 1044.58 -526 1045.26 C-525.18 1045.43 -525.18 1045.43 -524.33 1045.61 C-521.64 1046.36 -519.28 1047.44 -516.75 1048.63 C-513.53 1050.12 -510.34 1051.56 -507 1052.76 C-503.81 1053.91 -500.77 1055.27 -497.69 1056.7 C-493.03 1058.85 -488.33 1060.65 -483.49 1062.36 C-481.44 1063.1 -479.44 1063.95 -477.44 1064.82 C-473.79 1066.35 -470.14 1067.47 -466.34 1068.58 C-463.54 1069.4 -460.78 1070.33 -458 1071.26 C-456.36 1071.74 -454.71 1072.22 -453.07 1072.7 C-450.13 1073.56 -447.54 1074.47 -444.75 1075.76 C-440.07 1077.91 -434.94 1078.63 -429.92 1079.61 C-427 1080.26 -427 1080.26 -426 1081.26 C-424.03 1081.59 -422.05 1081.87 -420.07 1082.13 C-414.92 1082.88 -410.17 1084 -405.23 1085.6 C-402.18 1086.5 -399.16 1086.86 -396 1087.26 C-395.67 1087.59 -395.34 1087.92 -395 1088.26 C-393.17 1088.47 -391.34 1088.63 -389.5 1088.76 C-384.12 1089.15 -384.12 1089.15 -383 1090.26 C-381.36 1090.47 -379.72 1090.63 -378.07 1090.76 C-373.22 1091.15 -373.22 1091.15 -371 1092.26 C-368.88 1092.47 -366.74 1092.63 -364.61 1092.76 C-362.68 1092.88 -362.68 1092.88 -360.71 1093.01 C-359.35 1093.09 -357.99 1093.18 -356.63 1093.26 C-353.97 1093.42 -351.32 1093.59 -348.67 1093.76 C-347.49 1093.83 -346.31 1093.9 -345.09 1093.98 C-342 1094.26 -342 1094.26 -340.23 1094.77 C-337.23 1095.43 -334.4 1095.39 -331.34 1095.39 C-330.35 1095.39 -330.35 1095.39 -329.34 1095.39 C-327.16 1095.4 -324.98 1095.39 -322.81 1095.39 C-321.29 1095.39 -319.78 1095.39 -318.27 1095.39 C-315.1 1095.4 -311.93 1095.39 -308.76 1095.39 C-304.69 1095.38 -300.63 1095.39 -296.56 1095.39 C-293.43 1095.4 -290.31 1095.4 -287.19 1095.39 C-285.69 1095.39 -284.19 1095.39 -282.69 1095.4 C-280.59 1095.4 -278.5 1095.39 -276.41 1095.39 C-275.22 1095.39 -274.03 1095.39 -272.8 1095.39 C-270.05 1095.45 -270.05 1095.45 -268 1094.26 C-265.69 1094.05 -263.38 1093.89 -261.06 1093.76 C-260.38 1093.72 -259.7 1093.68 -258.99 1093.64 C-256.07 1093.46 -253.14 1093.3 -250.21 1093.13 C-248.08 1093.01 -245.95 1092.89 -243.81 1092.76 C-242.53 1092.69 -241.25 1092.61 -239.93 1092.54 C-237.12 1092.58 -237.12 1092.58 -236 1091.26 C-234.53 1091.05 -233.05 1090.89 -231.57 1090.76 C-228.16 1090.47 -228.16 1090.47 -225 1089.26 C-222.67 1088.95 -220.34 1088.75 -218 1088.54 C-216.01 1088.46 -216.01 1088.46 -215 1087.26 C-212.42 1086.94 -209.84 1086.75 -207.25 1086.54 C-205.04 1086.5 -205.04 1086.5 -204 1085.26 C-201.61 1084.79 -199.22 1084.36 -196.82 1083.95 C-190.2 1082.77 -183.84 1081.17 -177.39 1079.23 C-173.97 1078.25 -170.55 1077.45 -167.07 1076.7 C-162.41 1075.65 -158.37 1074.21 -154 1072.26 C-151.84 1071.57 -149.68 1070.91 -147.5 1070.26 C-142.33 1068.71 -142.33 1068.71 -137.32 1066.7 C-134.62 1065.53 -132.13 1064.68 -129.32 1063.88 C-121.46 1061.6 -113.97 1058.55 -107 1054.26 C-103.56 1052.66 -101.91 1052.26 -98 1052.26 C-98 1051.6 -98 1050.94 -98 1050.26 C-97.22 1050.03 -96.43 1049.8 -95.62 1049.56 C-94.57 1049.23 -93.52 1048.91 -92.44 1048.57 C-91.41 1048.26 -90.38 1047.94 -89.31 1047.62 C-86.01 1046.26 -83.66 1044.66 -80.83 1042.54 C-77.77 1040.39 -74.43 1038.86 -71.07 1037.26 C-66.1 1034.84 -61.28 1032.38 -56.66 1029.34 C-54.96 1028.23 -53.22 1027.24 -51.44 1026.26 C-48.34 1024.46 -45.51 1022.52 -42.62 1020.42 C-40.49 1018.9 -38.26 1017.59 -36 1016.26 C-34.97 1015.54 -33.94 1014.82 -32.88 1014.07 C-30 1012.26 -30 1012.26 -27 1012.26 C-27 1011.6 -27 1010.94 -27 1010.26 C-24 1008.26 -24 1008.26 -21 1008.26 C-21 1007.6 -21 1006.94 -21 1006.26 C-18.81 1004.55 -16.61 1002.95 -14.32 1001.38 C-10.1 998.46 -5.99 995.49 -2 992.26 C-0.17 990.9 1.66 989.55 3.5 988.2 C13.52 980.68 22.86 972.67 31.6 963.67 C34.56 960.62 37.53 957.76 41 955.26 C41.66 955.26 42.32 955.26 43 955.26 C43 954.6 43 953.94 43 953.26 C48.06 949.18 53.23 946.29 59.83 946.81 C66.75 948.25 70.94 951.61 75 957.26 C76.14 959.56 76.11 960.84 76.09 963.39 C76.09 964.2 76.09 965 76.08 965.83 C76.08 966.67 76.07 967.52 76.06 968.38 C76.05 969.23 76.05 970.08 76.04 970.96 C76.03 973.06 76.02 975.16 76 977.26 C75.34 977.26 74.68 977.26 74 977.26 C73.64 978.36 73.64 978.36 73.28 979.49 C71.8 982.69 70.15 984.28 67.5 986.57 C66.31 987.62 66.31 987.62 65.09 988.68 C63 990.26 63 990.26 61 990.26 C61 990.92 61 991.58 61 992.26 C60.34 992.26 59.68 992.26 59 992.26 C59 992.92 59 993.58 59 994.26 C57.56 995.67 57.56 995.67 55.56 997.32 C51.49 1000.76 47.82 1004.46 44.17 1008.34 C41.87 1010.37 39.89 1011.3 37 1012.26 C37 1012.92 37 1013.58 37 1014.26 C36.34 1014.26 35.68 1014.26 35 1014.26 C35 1014.92 35 1015.58 35 1016.26 C33.56 1017.52 33.56 1017.52 31.56 1018.95 C28.52 1021.15 25.52 1023.38 22.56 1025.7 C21.81 1026.28 21.06 1026.87 20.28 1027.47 C18.76 1028.66 17.25 1029.85 15.74 1031.05 C11.3 1034.55 6.79 1037.82 2.04 1040.9 C-0.06 1042.25 -0.06 1042.25 -2.08 1043.93 C-4 1045.26 -4 1045.26 -7 1045.26 C-7 1045.92 -7 1046.58 -7 1047.26 C-8.71 1048.6 -8.71 1048.6 -11.11 1050.13 C-12 1050.7 -12.89 1051.27 -13.81 1051.85 C-14.78 1052.46 -15.75 1053.07 -16.75 1053.7 C-17.75 1054.32 -18.74 1054.95 -19.76 1055.59 C-28.58 1061.1 -37.59 1066.18 -46.77 1071.07 C-48.83 1072.16 -50.87 1073.28 -52.92 1074.4 C-65.72 1081.39 -78.88 1087.7 -92.41 1093.15 C-94.9 1094.21 -97.24 1095.42 -99.63 1096.7 C-105.06 1099.5 -110.77 1101.29 -116.58 1103.12 C-120.96 1104.5 -124.92 1106.13 -129 1108.26 C-134.66 1110.46 -140.54 1111.96 -146.39 1113.51 C-148.61 1114.15 -150.68 1114.88 -152.82 1115.76 C-157.62 1117.66 -162.64 1118.48 -167.69 1119.5 C-170.32 1120.1 -172.59 1120.78 -175.07 1121.82 C-179.64 1123.73 -184.46 1124.19 -189.34 1124.83 C-191.92 1124.98 -191.92 1124.98 -193 1126.26 C-195.32 1126.58 -197.64 1126.77 -199.97 1126.98 C-202 1127.05 -202 1127.05 -203 1128.26 C-205.32 1128.58 -207.64 1128.77 -209.97 1128.98 C-212 1129.05 -212 1129.05 -213 1130.26 C-215.32 1130.58 -217.64 1130.77 -219.97 1130.98 C-222 1131.05 -222 1131.05 -223 1132.26 C-225.31 1132.47 -227.63 1132.63 -229.94 1132.76 C-234.64 1132.87 -234.64 1132.87 -239 1134.26 C-241.82 1134.47 -244.62 1134.63 -247.44 1134.76 C-253.31 1134.96 -253.31 1134.96 -259 1136.26 C-260.98 1136.41 -262.97 1136.51 -264.95 1136.58 C-266.79 1136.64 -266.79 1136.64 -268.66 1136.7 C-270.01 1136.74 -271.35 1136.78 -272.69 1136.82 C-273.38 1136.84 -274.06 1136.86 -274.77 1136.88 C-296.12 1137.52 -317.47 1137.49 -338.82 1136.82 C-340.1 1136.78 -341.38 1136.74 -342.7 1136.7 C-343.88 1136.66 -345.06 1136.62 -346.27 1136.58 C-347.31 1136.54 -348.35 1136.5 -349.42 1136.46 C-352 1136.26 -352 1136.26 -355 1135.26 C-358.65 1134.95 -362.3 1134.75 -365.95 1134.54 C-369 1134.26 -369 1134.26 -370 1133.26 C-372.17 1133.05 -374.33 1132.89 -376.5 1132.76 C-382.89 1132.37 -382.89 1132.37 -384 1131.26 C-386.17 1131.05 -388.33 1130.89 -390.5 1130.76 C-396.89 1130.37 -396.89 1130.37 -398 1129.26 C-400.84 1128.72 -403.66 1128.22 -406.5 1127.76 C-414.87 1126.39 -414.87 1126.39 -416 1125.26 C-418.33 1124.89 -420.67 1124.56 -423 1124.26 C-429.89 1123.37 -429.89 1123.37 -431 1122.26 C-432.2 1122.14 -433.4 1122.01 -434.63 1121.88 C-438.09 1121.49 -440.78 1120.58 -443.95 1119.08 C-447.59 1117.62 -451.42 1116.85 -455.22 1115.94 C-458.22 1115.21 -461.09 1114.25 -464 1113.26 C-466.71 1112.54 -469.41 1111.83 -472.12 1111.14 C-475.54 1110.09 -478.72 1108.67 -482 1107.26 C-484.74 1106.26 -487.5 1105.32 -490.25 1104.38 C-496.11 1102.36 -501.74 1100.12 -507.35 1097.47 C-510.27 1096.14 -513.24 1095.01 -516.25 1093.88 C-523.7 1091.08 -530.84 1087.7 -538 1084.26 C-538 1083.6 -538 1082.94 -538 1082.26 C-538.51 1082.17 -539.02 1082.08 -539.54 1081.99 C-543.7 1080.75 -547.52 1078.57 -551.34 1076.52 C-554.59 1074.91 -556.48 1074.15 -560.08 1074.9 C-561.04 1075.35 -562.01 1075.8 -563 1076.26 C-564.58 1076.84 -564.58 1076.84 -566.19 1077.44 C-567.8 1078.06 -567.8 1078.06 -569.44 1078.7 C-570.58 1079.14 -571.73 1079.58 -572.91 1080.03 C-575.13 1080.91 -577.33 1081.87 -579.5 1082.88 C-584.85 1084.98 -590.4 1086.06 -596 1087.26 C-596.68 1087.43 -597.36 1087.6 -598.06 1087.77 C-603.81 1089.18 -609.35 1089.64 -615.25 1089.82 C-621.6 1089.98 -621.6 1089.98 -627.86 1090.85 C-630.32 1091.32 -631.6 1090.86 -634 1090.26 C-635.56 1090.13 -637.11 1090.04 -638.67 1089.98 C-640.01 1089.92 -640.01 1089.92 -641.38 1089.86 C-642.31 1089.83 -643.24 1089.79 -644.19 1089.76 C-663.23 1089.03 -663.23 1089.03 -665 1087.26 C-666.01 1087.14 -667.03 1087.01 -668.07 1086.88 C-671.69 1086.31 -674.5 1085.41 -677.87 1084.06 C-680.06 1083.24 -682.24 1082.66 -684.5 1082.07 C-695.64 1078.81 -706.29 1072.49 -716 1066.26 C-717.08 1065.57 -718.16 1064.89 -719.28 1064.18 C-725.68 1060.03 -725.68 1060.03 -728 1058.26 C-728 1057.6 -728 1056.94 -728 1056.26 C-728.72 1056.03 -729.44 1055.79 -730.19 1055.55 C-733.52 1054.02 -735.49 1052.16 -738.09 1049.58 C-739.02 1048.65 -739.95 1047.72 -740.91 1046.76 C-741.39 1046.28 -741.86 1045.8 -742.35 1045.3 C-743.82 1043.82 -745.3 1042.35 -746.78 1040.89 C-748.17 1039.5 -748.17 1039.5 -749.59 1038.08 C-750.43 1037.22 -751.28 1036.37 -752.16 1035.5 C-754 1033.26 -754 1033.26 -754 1030.26 C-754.66 1030.26 -755.32 1030.26 -756 1030.26 C-758.73 1028.01 -760.24 1025.29 -762 1022.26 C-762.6 1021.39 -763.2 1020.53 -763.82 1019.63 C-765.77 1016.71 -767.52 1013.69 -769.25 1010.63 C-769.77 1009.71 -770.3 1008.79 -770.83 1007.84 C-772 1005.26 -772 1005.26 -772 1001.26 C-772.66 1001.26 -773.32 1001.26 -774 1001.26 C-778.6 993 -778.6 993 -778 988.26 C-778.66 988.26 -779.32 988.26 -780 988.26 C-780.2 987.53 -780.39 986.81 -780.59 986.06 C-782.18 980.08 -782.18 980.08 -784.13 974.2 C-785.21 970.58 -785.48 967.08 -785.76 963.33 C-785.79 961.27 -785.79 961.27 -787 960.26 C-787.08 957.91 -787.09 955.55 -787.07 953.2 C-787.06 951.91 -787.05 950.62 -787.04 949.29 C-787.03 948.29 -787.02 947.29 -787 946.26 C-787.66 946.26 -788.32 946.26 -789 946.26 C-789 935.7 -789 925.14 -789 914.26 C-788.34 914.26 -787.68 914.26 -787 914.26 C-787.02 913.4 -787.03 912.55 -787.04 911.67 C-787.05 910.56 -787.06 909.46 -787.07 908.32 C-787.08 907.22 -787.09 906.12 -787.1 904.98 C-787 902.26 -787 902.26 -786 901.26 C-785.63 899.1 -785.31 896.93 -785 894.76 C-784.12 888.37 -784.12 888.37 -783 887.26 C-782.86 886.21 -782.72 885.16 -782.57 884.07 C-782.05 880.58 -781.21 877.56 -780 874.26 C-779.34 874.26 -778.68 874.26 -778 874.26 C-778 872.94 -778 871.62 -778 870.26 C-777.34 870.26 -776.68 870.26 -776 870.26 C-776.07 869.54 -776.13 868.82 -776.19 868.07 C-775.97 864.7 -774.81 863.08 -773 860.26 C-772.31 858.07 -772.31 858.07 -772 856.26 C-772.66 856.26 -773.32 856.26 -774 856.26 C-774 854.94 -774 853.62 -774 852.26 C-774.66 852.26 -775.32 852.26 -776 852.26 C-776 850.94 -776 849.62 -776 848.26 C-776.66 848.26 -777.32 848.26 -778 848.26 C-778.99 846.2 -779.97 844.14 -780.94 842.07 C-781.49 840.92 -782.03 839.77 -782.59 838.59 C-783.8 835.74 -784.55 833.3 -785 830.26 C-785.66 830.26 -786.32 830.26 -787 830.26 C-787 828.94 -787 827.62 -787 826.26 C-787.66 826.26 -788.32 826.26 -789 826.26 C-789 824.94 -789 823.62 -789 822.26 C-789.66 822.26 -790.32 822.26 -791 822.26 C-791.29 821.37 -791.29 821.37 -791.59 820.47 C-793.25 815.41 -793.25 815.41 -795.19 810.45 C-796 808.26 -796 808.26 -796 804.26 C-796.66 804.26 -797.32 804.26 -798 804.26 C-799.86 801.12 -800.21 798.88 -800 795.26 C-800.66 795.26 -801.32 795.26 -802 795.26 C-804.62 789.3 -806.54 783.62 -807.61 777.19 C-807.82 775.26 -807.82 775.26 -809 774.26 C-809.04 772.59 -809.05 770.92 -809 769.26 C-809.66 769.26 -810.32 769.26 -811 769.26 C-811.19 768.56 -811.37 767.86 -811.55 767.13 C-812.74 762.68 -813.92 758.3 -815.63 754.01 C-816.97 750.34 -817.51 747.12 -818 743.26 C-818.5 741.53 -818.5 741.53 -819 739.76 C-820 736.26 -820.5 732.86 -821 729.26 C-821.33 728.93 -821.66 728.6 -822 728.26 C-822.04 725.93 -822.05 723.59 -822 721.26 C-822.66 721.26 -823.32 721.26 -824 721.26 C-824 718.29 -824 715.32 -824 712.26 C-824.66 712.26 -825.32 712.26 -826 712.26 C-826.06 711.48 -826.13 710.69 -826.19 709.89 C-826.27 708.88 -826.36 707.86 -826.44 706.82 C-826.52 705.81 -826.6 704.8 -826.69 703.76 C-826.74 701.32 -826.74 701.32 -828 700.26 C-828.33 697.68 -828.52 695.1 -828.72 692.51 C-828.77 690.29 -828.77 690.29 -830 689.26 C-831.44 681.25 -832.25 673.38 -831.98 665.24 C-831.77 663.26 -831.77 663.26 -833 662.26 C-833.08 659.56 -833.1 656.89 -833.07 654.2 C-833.06 653.44 -833.06 652.68 -833.05 651.9 C-833.04 650.02 -833.02 648.14 -833 646.26 C-833.66 646.26 -834.32 646.26 -835 646.26 C-835.03 635.45 -835.04 624.65 -835.06 613.85 C-835.06 608.83 -835.07 603.81 -835.08 598.8 C-835.09 593.96 -835.1 589.12 -835.1 584.28 C-835.1 582.44 -835.1 580.59 -835.11 578.74 C-835.12 576.15 -835.12 573.57 -835.12 570.99 C-835.12 570.22 -835.12 569.45 -835.13 568.65 C-835.12 563.37 -835.12 563.37 -834 562.26 C-833.77 559.57 -833.58 556.89 -833.44 554.2 C-833.4 553.44 -833.36 552.68 -833.31 551.9 C-833.2 550.02 -833.1 548.14 -833 546.26 C-832.34 546.26 -831.68 546.26 -831 546.26 C-831.33 545.6 -831.66 544.94 -832 544.26 C-832.13 542.3 -832.18 540.34 -832.19 538.38 C-832.21 537.33 -832.22 536.29 -832.23 535.2 C-832 532.25 -831.34 530.83 -830 528.26 C-829.76 525.9 -829.76 525.9 -829.88 523.51 C-829.9 522.71 -829.91 521.91 -829.93 521.09 C-829.97 520.18 -829.97 520.18 -830 519.26 C-829.34 519.26 -828.68 519.26 -828 519.26 C-828.02 518.48 -828.03 517.69 -828.04 516.89 C-828.05 515.88 -828.06 514.86 -828.07 513.82 C-828.08 512.81 -828.09 511.8 -828.1 510.76 C-828 508.26 -828 508.26 -827 507.26 C-826.8 505.93 -826.64 504.6 -826.5 503.26 C-826.12 499.37 -826.12 499.37 -825 498.26 C-824.8 496.6 -824.64 494.93 -824.5 493.26 C-824.12 488.37 -824.12 488.37 -823 487.26 C-822.64 484.93 -822.3 482.6 -822 480.26 C-821.34 480.26 -820.68 480.26 -820 480.26 C-820.02 479.48 -820.05 478.69 -820.07 477.88 C-820 475.26 -820 475.26 -819 473.26 C-819 472.41 -819 471.57 -819 470.7 C-819 468.26 -819 468.26 -818 467.26 C-817.64 464.93 -817.3 462.6 -817 460.26 C-816.34 460.26 -815.68 460.26 -815 460.26 C-815.05 459.23 -815.09 458.2 -815.13 457.13 C-815.01 453.39 -814.36 450.72 -813 447.26 C-812.34 447.26 -811.68 447.26 -811 447.26 C-811 445.28 -811 443.3 -811 441.26 C-810.34 441.26 -809.68 441.26 -809 441.26 C-809.05 440.56 -809.09 439.86 -809.13 439.13 C-808.98 435.8 -808.13 433.4 -807 430.26 C-806.52 428.57 -806.04 426.88 -805.57 425.2 C-804.47 421.48 -803.07 418.55 -801 415.26 C-800.3 412.57 -800.3 412.57 -800 410.26 C-799.34 410.26 -798.68 410.26 -798 410.26 C-798 408.94 -798 407.62 -798 406.26 C-797.34 406.26 -796.68 406.26 -796 406.26 C-796.5 404.77 -796.5 404.77 -797 403.26 C-796.04 401.24 -795.04 399.24 -794 397.26 C-793.3 394.52 -793.3 394.52 -793 392.26 C-792.34 392.26 -791.68 392.26 -791 392.26 C-791 390.94 -791 389.62 -791 388.26 C-790.34 388.26 -789.68 388.26 -789 388.26 C-789.06 387.56 -789.13 386.86 -789.19 386.14 C-788.96 382.54 -787.76 380.31 -786.07 377.13 C-783.78 372.8 -783.78 372.8 -782 368.26 C-781.34 368.26 -780.68 368.26 -780 368.26 C-779.89 367.72 -779.78 367.18 -779.66 366.62 C-778.86 363.76 -777.69 361.2 -776.44 358.51 C-775.99 357.52 -775.53 356.54 -775.06 355.52 C-774.71 354.78 -774.36 354.03 -774 353.26 C-773.34 353.26 -772.68 353.26 -772 353.26 C-772 351.94 -772 350.62 -772 349.26 C-771.34 349.26 -770.68 349.26 -770 349.26 C-769.67 347.61 -769.34 345.96 -769 344.26 C-768.34 344.26 -767.68 344.26 -767 344.26 C-766.9 343.7 -766.8 343.15 -766.69 342.57 C-765.86 339.77 -764.55 337.75 -763 335.26 C-759.81 329.68 -756.84 324.03 -754 318.26 C-753.34 318.26 -752.68 318.26 -752 318.26 C-752 317.6 -752 316.94 -752 316.26 C-751.34 316.26 -750.68 316.26 -750 316.26 C-749.9 315.68 -749.79 315.1 -749.68 314.5 C-748.91 311.95 -747.84 310.46 -746.19 308.38 C-742.96 304.21 -740.04 299.94 -737.27 295.44 C-736.65 294.43 -736.02 293.42 -735.38 292.38 C-734.79 291.42 -734.2 290.45 -733.59 289.45 C-733.07 288.73 -732.54 288.01 -732 287.26 C-731.34 287.26 -730.68 287.26 -730 287.26 C-730 286.6 -730 285.94 -730 285.26 C-729.34 285.26 -728.68 285.26 -728 285.26 C-727.91 284.42 -727.91 284.42 -727.82 283.57 C-726.67 280.32 -724.46 278.65 -722 276.26 C-721.51 275.43 -721.01 274.61 -720.5 273.76 C-718.72 270.78 -716.45 268.71 -714 266.26 C-713.53 265.47 -713.07 264.68 -712.58 263.87 C-711.01 261.26 -709.31 259.19 -707.25 256.95 C-704.43 253.85 -704.43 253.85 -701.68 250.69 C-696.03 244.05 -689.85 237.92 -683.69 231.76 C-681.77 229.83 -679.85 227.9 -677.94 225.97 C-671.66 219.66 -665.37 213.65 -658.35 208.17 C-655.83 206.12 -653.58 203.9 -651.32 201.57 C-648.1 198.28 -644.84 195.47 -641.11 192.79 C-635.72 188.87 -630.56 184.61 -625.5 180.26 C-623 178.26 -623 178.26 -621 178.26 C-621 177.6 -621 176.94 -621 176.26 C-618.98 174.81 -618.98 174.81 -616.19 173.13 C-612.27 170.71 -608.51 168.21 -604.82 165.45 C-597.82 160.28 -590.42 155.79 -583 151.26 C-582.03 150.66 -581.05 150.05 -580.04 149.43 C-575.79 146.84 -571.53 144.47 -567.04 142.31 C-565.05 141.28 -563.21 140.14 -561.33 138.91 C-557.03 136.19 -552.56 134.05 -547.94 131.95 C-541.89 129.14 -535.97 126.23 -530.13 123.01 C-524.56 119.96 -518.92 117.52 -512.95 115.36 C-510.22 114.34 -507.63 113.19 -505 111.95 C-501.88 110.51 -499.5 109.81 -496 110.26 C-496 109.6 -496 108.94 -496 108.26 C-489.04 105.18 -481.99 103.1 -474.62 101.29 C-470.91 100.23 -467.53 98.81 -464 97.26 C-462.39 96.73 -460.76 96.22 -459.13 95.76 C-455.93 94.84 -452.81 93.84 -449.69 92.7 C-444.91 91.06 -440.07 90.48 -435.09 89.79 C-432.4 89.33 -430.15 88.71 -427.63 87.7 C-424.03 86.27 -420.83 85.73 -417 85.26 C-416.67 84.93 -416.34 84.6 -416 84.26 C-413.69 83.94 -411.37 83.75 -409.04 83.54 C-407.01 83.47 -407.01 83.47 -406 82.26 C-403.87 82.02 -401.73 81.79 -399.6 81.58 C-397.04 81.26 -394.58 80.8 -392.07 80.26 C-387.73 79.34 -383.45 78.85 -379.04 78.5 C-376.94 78.37 -376.94 78.37 -375 77.26 C-371.81 76.99 -368.62 76.81 -365.41 76.65 C-361.58 76.5 -361.58 76.5 -358 75.26 C-354.59 74.99 -351.19 74.81 -347.77 74.65 C-343.76 74.52 -343.76 74.52 -340 73.26 C-338.05 73.16 -336.09 73.13 -334.13 73.13 C-332.29 73.12 -332.29 73.12 -330.4 73.12 C-329.05 73.12 -327.7 73.12 -326.35 73.13 C-324.97 73.13 -323.59 73.12 -322.21 73.12 C-319.32 73.12 -316.42 73.12 -313.53 73.13 C-309.82 73.13 -306.11 73.13 -302.4 73.12 C-299.55 73.12 -296.7 73.12 -293.85 73.12 C-292.48 73.13 -291.11 73.12 -289.74 73.12 C-287.83 73.12 -285.92 73.12 -284 73.13 C-282.92 73.13 -281.83 73.13 -280.7 73.13 C-278 73.26 -278 73.26 -275 74.26 C-273.33 74.4 -271.65 74.48 -269.97 74.54 C-268.99 74.58 -268.02 74.61 -267.02 74.65 C-264.96 74.72 -262.91 74.79 -260.85 74.86 C-259.88 74.9 -258.91 74.94 -257.91 74.98 C-257.01 75.01 -256.12 75.04 -255.2 75.07 C-253 75.26 -253 75.26 -251 76.26 C-248.5 76.47 -246.01 76.63 -243.5 76.76 C-236.27 77.12 -236.27 77.12 -234 78.26 C-232.42 78.47 -230.84 78.63 -229.25 78.76 C-228.31 78.84 -227.38 78.92 -226.41 79.01 C-224.43 79.18 -222.44 79.34 -220.46 79.51 C-219.52 79.59 -218.59 79.67 -217.62 79.76 C-216.76 79.83 -215.9 79.9 -215.01 79.98 C-213 80.26 -213 80.26 -212 81.26 C-210.51 81.47 -209.01 81.63 -207.5 81.76 C-203.12 82.15 -203.12 82.15 -202 83.26 C-200.55 83.49 -199.09 83.67 -197.63 83.82 C-196.44 83.95 -196.44 83.95 -195.23 84.08 C-185.63 84.87 -177.09 75.95 -169.83 70.37 C-161.66 64.26 -161.66 64.26 -159 64.26 C-159 63.6 -159 62.94 -159 62.26 C-156.8 60.81 -156.8 60.81 -154 59.26 C-152.84 58.55 -152.84 58.55 -151.64 57.83 C-136.75 48.83 -121.3 40.8 -105.7 33.1 C-103.42 31.97 -101.18 30.82 -98.93 29.64 C-92.53 26.28 -86.07 23.77 -79.24 21.45 C-74.11 19.69 -69.19 17.67 -64.3 15.34 C-59.46 13.07 -55.31 11.99 -50 11.26 C-48.38 10.8 -46.76 10.35 -45.15 9.86 C-42.31 9.07 -39.44 8.45 -36.57 7.82 C-32.86 6.99 -29.38 6.11 -25.88 4.63 C-21.81 2.96 -17.79 2.77 -13.42 2.57 C-8.65 1.96 -5.22 -0.03 0 0 Z M14.37 39.7 C13.01 39.76 13.01 39.76 11.62 39.81 C10.37 39.88 10.37 39.88 9.08 39.94 C8.34 39.98 7.6 40.02 6.83 40.05 C4.9 40.16 4.9 40.16 3 41.26 C0.14 41.57 -2.71 41.77 -5.57 41.98 C-7.95 42 -7.95 42 -9 43.26 C-10.33 43.42 -11.67 43.54 -13 43.63 C-16.18 43.96 -18.94 44.47 -21.94 45.57 C-27.34 47.53 -32.91 48.61 -38.53 49.72 C-43.12 50.68 -46.83 52.04 -51 54.26 C-52.55 54.76 -54.12 55.22 -55.69 55.63 C-60.45 57 -64.79 58.89 -69.26 61 C-71.94 62.23 -74.63 63.32 -77.38 64.38 C-80.83 65.74 -83.85 67.3 -87 69.26 C-88.69 69.97 -90.38 70.69 -92.08 71.4 C-95.22 72.8 -98.23 74.43 -101.25 76.07 C-101.9 76.42 -102.55 76.77 -103.22 77.13 C-104.53 77.84 -105.84 78.55 -107.15 79.26 C-108.82 80.16 -110.5 81.05 -112.18 81.94 C-116.77 84.39 -121.08 86.91 -125.25 90.03 C-128.03 91.97 -131 93.54 -133.99 95.15 C-136.21 96.34 -136.21 96.34 -139 98.26 C-139 98.92 -139 99.58 -139 100.26 C-129.31 104.59 -129.31 104.59 -119 106.26 C-119 106.92 -119 107.58 -119 108.26 C-118.4 108.43 -117.79 108.6 -117.17 108.77 C-112.68 110.07 -108.32 111.48 -104 113.26 C-97.5 115.93 -90.91 117.95 -84 119.26 C-84 119.92 -84 120.58 -84 121.26 C-75.68 124.21 -75.68 124.21 -67 124.26 C-64.78 122.87 -62.8 121.36 -60.8 119.67 C-59 118.26 -59 118.26 -56 117.26 C-56 116.6 -56 115.94 -56 115.26 C-55.22 114.95 -54.44 114.64 -53.63 114.32 C-51.08 113.33 -51.08 113.33 -49 112.26 C-49 111.6 -49 110.94 -49 110.26 C-48.01 109.95 -48.01 109.95 -47 109.63 C-43.57 108.06 -40.9 106.01 -37.92 103.71 C-35.71 102.04 -33.4 100.65 -31 99.26 C-26.78 96.54 -22.79 93.61 -18.84 90.53 C-17 89.26 -17 89.26 -14 88.26 C-14 87.6 -14 86.94 -14 86.26 C-13.34 86.04 -12.68 85.83 -12 85.6 C-7.99 83.8 -4.67 81.33 -1.13 78.76 C5.31 74.12 11.83 69.65 18.52 65.38 C20.05 64.39 21.53 63.33 23 62.26 C23 61.6 23 60.94 23 60.26 C23.56 60.15 24.12 60.05 24.7 59.94 C27.42 59.13 29.39 57.9 31.75 56.32 C32.55 55.8 33.34 55.27 34.17 54.73 C34.77 54.25 35.37 53.76 36 53.26 C36 52.6 36 51.94 36 51.26 C36.55 51.16 37.11 51.07 37.68 50.97 C40.58 50.08 42.59 48.65 45.06 46.88 C45.92 46.28 46.77 45.67 47.66 45.05 C49.61 43.55 51.32 42.05 53 40.26 C47.58 39.35 42.36 39.1 36.87 39.13 C36.02 39.14 35.16 39.14 34.28 39.14 C27.64 39.19 21.01 39.4 14.37 39.7 Z M104.55 53.52 C103.86 54 103.18 54.48 102.47 54.97 C101.4 55.73 101.4 55.73 100.31 56.51 C95.32 60.03 90.35 63.31 85 66.26 C85 66.92 85 67.58 85 68.26 C84.34 68.26 83.68 68.26 83 68.26 C83 68.92 83 69.58 83 70.26 C82.47 70.33 81.95 70.4 81.41 70.47 C77.95 71.6 75.31 73.74 72.43 75.88 C65.8 80.73 58.97 85.18 51.98 89.5 C50.62 90.37 49.3 91.31 48 92.26 C48 92.92 48 93.58 48 94.26 C47.21 94.57 46.43 94.88 45.62 95.2 C43.07 96.19 43.07 96.19 41 97.26 C41 97.92 41 98.58 41 99.26 C40.44 99.36 39.88 99.45 39.3 99.55 C36.44 100.43 34.49 101.83 32.06 103.57 C31.18 104.2 30.3 104.83 29.39 105.48 C27.63 106.79 25.9 108.14 24.18 109.51 C21.89 111.34 19.53 112.78 17 114.26 C16.01 114.92 15.02 115.58 14 116.26 C11 118.26 11 118.26 8.12 119.88 C7.42 120.34 6.72 120.79 6 121.26 C6 121.92 6 122.58 6 123.26 C5.01 123.57 5.01 123.57 4 123.88 C0.56 125.46 -2.1 127.5 -5.08 129.8 C-8.5 132.39 -12.15 134.4 -16 136.26 C-16 136.92 -16 137.58 -16 138.26 C-17.18 138.72 -17.18 138.72 -18.38 139.2 C-20.93 140.19 -20.93 140.19 -23 141.26 C-23 141.92 -23 142.58 -23 143.26 C-20.59 144.23 -18.17 145.21 -15.74 146.17 C-14.07 146.83 -12.4 147.51 -10.73 148.19 C-7.03 149.67 -4.01 150.63 -0 150.26 C-0 150.92 -0 151.58 -0 152.26 C0.6 152.43 1.21 152.6 1.83 152.77 C9 154.85 15.82 157.47 22.67 160.4 C23.54 160.77 24.41 161.13 25.31 161.51 C26.09 161.84 26.87 162.18 27.67 162.52 C30.23 163.33 32.33 163.39 35 163.26 C35 163.92 35 164.58 35 165.26 C35.54 165.44 36.09 165.62 36.65 165.81 C38.24 166.34 39.83 166.87 41.42 167.4 C43.07 167.95 44.73 168.49 46.39 169.02 C49.72 170.09 52.81 171.16 55.93 172.76 C59.35 174.43 62.73 175.4 66.37 176.45 C69.74 177.49 72.96 178.81 76.22 180.15 C80.69 181.93 85.25 183.49 89.79 185.09 C92.25 185.99 94.58 186.95 96.93 188.07 C100.69 189.53 103 189.9 107 189.26 C109.62 187.55 111.76 185.45 114 183.26 C117.83 179.83 121.53 176.84 126 174.26 C128.32 172.48 130.56 170.64 132.76 168.7 C133.38 168.17 133.99 167.63 134.62 167.07 C135.19 166.56 135.76 166.05 136.35 165.53 C138 164.26 138 164.26 141 163.26 C141 162.6 141 161.94 141 161.26 C141.51 161.03 142.03 160.81 142.56 160.57 C145.89 158.78 149.14 156.76 152 154.26 C152 153.6 152 152.94 152 152.26 C152.68 152.05 153.36 151.85 154.06 151.63 C157.14 150.19 159.33 148.35 161.86 146.09 C165.4 143.06 169.18 140.35 172.93 137.57 C176.62 134.79 180.21 131.89 183.79 128.98 C185.69 127.5 187.59 126.17 189.62 124.88 C190.4 124.35 191.19 123.81 192 123.26 C192 122.6 192 121.94 192 121.26 C192.68 121.05 193.36 120.85 194.06 120.63 C199.6 118.04 203.74 113.57 208 109.26 C206.38 107.92 204.75 106.59 203.12 105.26 C202.22 104.52 201.31 103.77 200.38 103.01 C198.22 101.06 198.22 101.06 196 101.26 C196 100.6 196 99.94 196 99.26 C194.51 97.9 194.51 97.9 192.62 96.63 C191.99 96.19 191.37 95.74 190.72 95.28 C189.04 94.09 189.04 94.09 187 94.26 C187 93.6 187 92.94 187 92.26 C185.17 90.9 183.28 89.62 181.37 88.38 C180.33 87.71 179.28 87.03 178.21 86.33 C177.15 85.65 176.09 84.96 175 84.26 C172 82.27 169.01 80.27 166.05 78.24 C162.84 76.16 159.56 74.29 156.18 72.51 C155.54 72.17 154.9 71.83 154.24 71.48 C146.62 67.47 138.82 63.86 131 60.26 C129.95 59.77 128.91 59.29 127.83 58.79 C116.2 52.1 116.2 52.1 104.55 53.52 Z M236 138.26 C234.34 139.61 232.69 140.98 231.11 142.43 C227.93 145.18 224.44 147.43 220.94 149.74 C220.3 150.24 219.66 150.74 219 151.26 C219 151.92 219 152.58 219 153.26 C218.45 153.5 217.91 153.75 217.35 154 C214.46 155.54 211.98 157.41 209.37 159.38 C208.84 159.78 208.32 160.18 207.78 160.59 C203.59 163.77 199.47 167.04 195.38 170.34 C185.14 178.58 185.14 178.58 180.93 181.07 C180.29 181.46 179.65 181.86 179 182.26 C179 182.92 179 183.58 179 184.26 C178.44 184.53 177.88 184.8 177.31 185.07 C174.78 186.37 172.36 187.68 170 189.26 C170 189.92 170 190.58 170 191.26 C169.34 191.26 168.68 191.26 168 191.26 C168 191.92 168 192.58 168 193.26 C167.32 193.47 166.63 193.67 165.93 193.88 C162.68 195.41 160.5 197.28 157.84 199.66 C155.04 202.08 152.04 204.15 149 206.26 C151.87 208.64 154.34 209.88 157.93 210.88 C158.77 211.12 159.6 211.36 160.46 211.61 C162.96 212.25 165.46 212.78 168 213.26 C168 213.92 168 214.58 168 215.26 C168.88 215.49 169.76 215.72 170.67 215.96 C177.38 217.78 183.6 219.88 189.87 222.9 C194.65 224.98 199.58 226.53 204.54 228.12 C209.15 229.6 213.55 231.32 218 233.26 C220.26 234.09 222.53 234.9 224.81 235.7 C229 237.17 233.14 238.69 237.25 240.38 C241.34 242.06 245.48 243.32 249.74 244.53 C252.65 245.47 255.26 246.89 258 248.26 C259.32 248.26 260.64 248.26 262 248.26 C262 248.92 262 249.58 262 250.26 C262.88 250.49 263.76 250.72 264.67 250.96 C270.37 252.51 275.9 254.06 281.25 256.63 C285.96 258.9 290.72 260.58 295.68 262.2 C301.67 264.14 307.61 266.16 313.5 268.38 C314.15 268.63 314.81 268.88 315.49 269.13 C320.07 270.87 324.59 272.72 329.08 274.69 C331.19 275.51 331.19 275.51 334 274.26 C333.34 274.26 332.68 274.26 332 274.26 C331.89 273.74 331.79 273.23 331.68 272.7 C330.75 269.4 329.38 266.39 328 263.26 C327.34 263.26 326.68 263.26 326 263.26 C325.81 262.15 325.81 262.15 325.62 261.01 C325.04 258.46 324.26 256.53 323 254.26 C322.34 254.26 321.68 254.26 321 254.26 C321 252.94 321 251.62 321 250.26 C320.34 250.26 319.68 250.26 319 250.26 C318.87 249.68 318.75 249.11 318.63 248.51 C316.45 240.74 310.76 232.68 306 226.26 C305.34 226.26 304.68 226.26 304 226.26 C303.87 225.45 303.75 224.65 303.62 223.82 C303.41 222.98 303.21 222.13 303 221.26 C302.34 220.93 301.68 220.6 301 220.26 C300.27 218.62 299.6 216.95 299 215.26 C298.34 215.26 297.68 215.26 297 215.26 C296.9 214.7 296.8 214.14 296.7 213.56 C294.65 206.83 288.87 200.98 284.27 195.78 C282.57 193.75 281.28 191.58 280 189.26 C278.52 186.51 278.52 186.51 277 184.26 C276.34 184.26 275.68 184.26 275 184.26 C275 183.6 275 182.94 275 182.26 C274.34 182.26 273.68 182.26 273 182.26 C273 181.6 273 180.94 273 180.26 C272.34 180.26 271.68 180.26 271 180.26 C270.81 179.36 270.81 179.36 270.62 178.45 C270.04 176 270.04 176 268 173.26 C267.34 173.26 266.68 173.26 266 173.26 C265.65 172.19 265.65 172.19 265.29 171.09 C263.76 167.74 261.84 165.62 259.31 162.95 C258.41 161.98 257.51 161.02 256.59 160.02 C255.3 158.66 255.3 158.66 254 157.26 C249.34 152.11 245 146.78 240.79 141.26 C239.07 139.01 239.07 139.01 236 138.26 Z M-148 140.26 C-147.68 141.6 -147.35 142.93 -147 144.26 C-146.69 145.48 -146.39 146.69 -146.07 147.95 C-145.54 149.59 -145.54 149.59 -145 151.26 C-144.34 151.59 -143.68 151.92 -143 152.26 C-143 153.58 -143 154.9 -143 156.26 C-142.34 156.26 -141.68 156.26 -141 156.26 C-141 157.58 -141 158.9 -141 160.26 C-140.34 160.26 -139.68 160.26 -139 160.26 C-139 161.91 -139 163.56 -139 165.26 C-138.34 165.26 -137.68 165.26 -137 165.26 C-136.88 166.25 -136.88 166.25 -136.75 167.26 C-135.76 171.25 -133.93 174.64 -132 178.26 C-131.34 178.26 -130.68 178.26 -130 178.26 C-130 179.58 -130 180.9 -130 182.26 C-129.34 182.26 -128.68 182.26 -128 182.26 C-127.88 182.84 -127.75 183.42 -127.62 184.02 C-126.01 189.89 -122.63 195.42 -119 200.26 C-118.34 200.26 -117.68 200.26 -117 200.26 C-116.67 201.91 -116.34 203.56 -116 205.26 C-115.01 205.59 -114.02 205.92 -113 206.26 C-112.67 207.91 -112.34 209.56 -112 211.26 C-111.34 211.26 -110.68 211.26 -110 211.26 C-109.86 211.88 -109.72 212.5 -109.57 213.13 C-109.07 215.29 -109.07 215.29 -108 217.26 C-107.34 217.26 -106.68 217.26 -106 217.26 C-106 217.92 -106 218.58 -106 219.26 C-105.34 219.26 -104.68 219.26 -104 219.26 C-103.8 219.94 -103.59 220.62 -103.38 221.32 C-101.54 225.25 -98.9 228.06 -96 231.26 C-94.77 232.63 -93.54 234.01 -92.32 235.38 C-91.76 236.01 -91.19 236.63 -90.62 237.27 C-89 239.26 -89 239.26 -87.57 241.71 C-85.85 244.5 -83.94 246.62 -81.63 248.95 C-80.88 249.71 -80.13 250.48 -79.36 251.27 C-76.97 253.29 -74.95 254.28 -72 255.26 C-72 255.92 -72 256.58 -72 257.26 C-70.35 258.93 -70.35 258.93 -68.25 260.63 C-65.94 262.59 -63.78 264.49 -61.69 266.7 C-60.02 268.6 -60.02 268.6 -57 268.26 C-57 268.92 -57 269.58 -57 270.26 C-54.6 272.08 -54.6 272.08 -51.63 273.88 C-50.63 274.52 -49.63 275.15 -48.61 275.8 C-46.21 277.42 -46.21 277.42 -44 277.26 C-44 277.92 -44 278.58 -44 279.26 C-41.75 280.78 -41.75 280.78 -39 282.26 C-37.34 283.26 -35.67 284.26 -34 285.26 C-34.99 280.8 -34.99 280.8 -36 276.26 C-36.66 276.26 -37.32 276.26 -38 276.26 C-37.94 275.58 -37.88 274.9 -37.82 274.2 C-38.06 270.43 -39.47 267.69 -41 264.26 C-41.69 261.32 -41.69 261.32 -42 259.26 C-42.66 259.26 -43.32 259.26 -44 259.26 C-44.13 258.68 -44.25 258.1 -44.37 257.5 C-45.34 252.97 -46.51 248.65 -48 244.26 C-48.36 242.6 -48.71 240.93 -49 239.26 C-49.66 239.26 -50.32 239.26 -51 239.26 C-50.96 238.56 -50.92 237.86 -50.88 237.13 C-51.02 233.88 -51.87 231.3 -53 228.26 C-53.66 228.26 -54.32 228.26 -55 228.26 C-55 226.94 -55 225.62 -55 224.26 C-55.66 224.26 -56.32 224.26 -57 224.26 C-57.05 223.61 -57.1 222.95 -57.15 222.28 C-57.58 217.33 -58.16 212.93 -60 208.26 C-60.66 208.26 -61.32 208.26 -62 208.26 C-62 206.28 -62 204.3 -62 202.26 C-62.66 202.26 -63.32 202.26 -64 202.26 C-64.11 201.69 -64.22 201.12 -64.34 200.54 C-65.12 196.73 -65.97 193.35 -67.5 189.76 C-68.73 186.9 -69.41 184.64 -70 181.63 C-70.75 177.96 -71.95 175.42 -74 172.26 C-74.24 171.28 -74.47 170.29 -74.71 169.28 C-75.74 166.03 -75.74 166.03 -78.83 164.68 C-79.96 164.32 -81.09 163.95 -82.25 163.57 C-85.64 162.44 -88.83 161.35 -92.02 159.74 C-95.12 158.2 -98.12 157.22 -101.44 156.26 C-106.13 154.86 -110.52 153.23 -115 151.26 C-121.97 148.68 -128.98 146.25 -136.04 143.95 C-138.04 143.25 -139.95 142.43 -141.88 141.57 C-144.9 140.07 -144.9 140.07 -148 140.26 Z M-27 185.26 C-27 186.58 -27 187.9 -27 189.26 C-26.34 189.26 -25.68 189.26 -25 189.26 C-25 190.58 -25 191.9 -25 193.26 C-24.34 193.26 -23.68 193.26 -23 193.26 C-23.1 194.28 -23.1 194.28 -23.19 195.32 C-22.99 198.41 -22.09 200.52 -20.8 203.3 C-19.64 206.16 -19.09 209.09 -18.48 212.1 C-17.86 214.9 -16.97 217.57 -16 220.26 C-15.34 220.26 -14.68 220.26 -14 220.26 C-13.34 223.59 -12.67 226.93 -12 230.26 C-11.34 230.26 -10.68 230.26 -10 230.26 C-10.1 231.28 -10.1 231.28 -10.19 232.32 C-9.95 236.07 -8.5 238.83 -7 242.26 C-7 243.58 -7 244.9 -7 246.26 C-6.34 246.26 -5.68 246.26 -5 246.26 C-5.07 246.98 -5.13 247.7 -5.19 248.45 C-4.97 251.82 -3.78 253.42 -2 256.26 C-1.32 259.07 -1.32 259.07 -1 261.26 C-0.34 261.26 0.32 261.26 1 261.26 C0.93 261.94 0.87 262.62 0.81 263.32 C1.05 267.07 2.5 269.83 4 273.26 C4 274.58 4 275.9 4 277.26 C4.66 277.26 5.32 277.26 6 277.26 C6 279.24 6 281.22 6 283.26 C6.66 283.26 7.32 283.26 8 283.26 C8.12 283.84 8.24 284.42 8.36 285.02 C9.33 289.54 10.43 293.9 12 298.26 C12.66 298.26 13.32 298.26 14 298.26 C13.93 298.94 13.87 299.62 13.81 300.32 C14.05 304.14 15.27 306.86 17 310.26 C20.09 312.32 22.16 312.89 25.75 313.7 C30.44 314.81 34.57 316.33 39 318.26 C45.3 320.26 51.43 321.53 58 322.26 C58.33 322.59 58.66 322.92 59 323.26 C60.32 323.46 61.66 323.63 63 323.76 C66.88 324.15 66.88 324.15 68 325.26 C69.49 325.47 70.99 325.63 72.5 325.76 C76.88 326.15 76.88 326.15 78 327.26 C79.83 327.47 81.66 327.63 83.5 327.76 C88.88 328.15 88.88 328.15 90 329.26 C92.98 329.47 95.95 329.64 98.93 329.76 C100.59 329.83 102.24 329.9 103.9 329.98 C104.64 330.01 105.37 330.04 106.13 330.07 C108 330.26 108 330.26 110 331.26 C112 331.3 114 331.3 116 331.26 C115.83 330.29 115.67 329.32 115.5 328.32 C114.86 323.96 114.91 319.65 115 315.26 C114.34 315.26 113.68 315.26 113 315.26 C113.01 314.3 113.01 314.3 113.03 313.33 C113.04 312.5 113.05 311.67 113.06 310.82 C113.08 309.59 113.08 309.59 113.09 308.33 C113.23 306.27 113.23 306.27 112 305.26 C111.76 303.41 111.58 301.55 111.43 299.7 C111.35 298.68 111.27 297.67 111.18 296.63 C111.12 295.85 111.06 295.06 111 294.26 C110.34 294.26 109.68 294.26 109 294.26 C109 291.29 109 288.32 109 285.26 C108.34 285.26 107.68 285.26 107 285.26 C107.01 284.09 107.01 284.09 107.03 282.89 C107.04 281.88 107.05 280.86 107.06 279.82 C107.08 278.31 107.08 278.31 107.09 276.76 C107.28 274.32 107.28 274.32 106 273.26 C105.67 270.68 105.48 268.1 105.28 265.51 C105.23 263.29 105.23 263.29 104 262.26 C102.47 255.9 101.75 249.78 102 243.26 C101.34 243.26 100.68 243.26 100 243.26 C100.03 242.66 100.07 242.05 100.1 241.43 C100.14 240.23 100.14 240.23 100.18 239.01 C100.22 238.22 100.25 237.43 100.29 236.62 C99.92 233.64 99.07 232.41 97 230.26 C94.97 229.07 94.97 229.07 92.62 228.26 C91.74 227.93 90.86 227.6 89.95 227.26 C85.66 225.81 81.33 224.5 76.98 223.2 C73.51 222.11 70.3 220.77 67 219.26 C63.48 217.71 61.95 217.26 58 217.26 C58 216.6 58 215.94 58 215.26 C57.06 215 56.11 214.75 55.14 214.49 C53.9 214.15 52.65 213.8 51.37 213.45 C49.53 212.94 49.53 212.94 47.64 212.43 C44.19 211.32 41.21 209.92 38 208.26 C36.53 207.72 35.05 207.22 33.56 206.76 C30.28 205.71 27.2 204.47 24.06 203.07 C21.33 202 18.55 201.21 15.75 200.38 C10.5 198.81 5.7 196.84 0.76 194.49 C-3.16 192.74 -7.2 191.47 -11.28 190.17 C-13.56 189.41 -15.7 188.57 -17.88 187.57 C-20.96 186.28 -23.7 185.66 -27 185.26 Z M142 248.26 C142.51 254.29 143.1 260.27 144 266.26 C144 266.92 144 267.58 144 268.26 C144.66 268.26 145.32 268.26 146 268.26 C146 271.89 146 275.52 146 279.26 C146.66 279.26 147.32 279.26 148 279.26 C147.98 280.04 147.97 280.82 147.96 281.63 C147.95 282.64 147.94 283.65 147.93 284.7 C147.92 285.71 147.91 286.71 147.9 287.75 C147.71 290.2 147.71 290.2 149 291.26 C149.32 293.32 149.51 295.37 149.71 297.45 C149.82 299.28 149.82 299.28 151 300.26 C151.32 302.84 151.51 305.42 151.71 308.01 C151.76 310.23 151.76 310.23 153 311.26 C153.32 313.58 153.51 315.9 153.71 318.23 C153.79 320.25 153.79 320.25 155 321.26 C155.07 323.59 154.99 325.9 154.93 328.23 C154.76 330.25 154.76 330.25 156 331.26 C157.75 331.36 159.51 331.39 161.27 331.39 C162.34 331.39 163.41 331.39 164.52 331.4 C165.64 331.39 166.77 331.39 167.93 331.38 C169.06 331.39 170.18 331.39 171.34 331.4 C172.41 331.39 173.48 331.39 174.59 331.39 C175.57 331.39 176.56 331.39 177.58 331.39 C180.01 331.42 180.01 331.42 182 330.26 C183.5 330.12 185.02 330.03 186.53 329.98 C187.42 329.94 188.31 329.9 189.23 329.86 C191.12 329.79 193.01 329.72 194.9 329.65 C195.79 329.62 196.68 329.58 197.59 329.54 C198.41 329.51 199.23 329.48 200.08 329.45 C202 329.46 202 329.46 203 328.26 C205.31 328.05 207.62 327.89 209.93 327.76 C214.63 327.65 214.63 327.65 219 326.26 C222.63 325.94 226.26 325.75 229.91 325.54 C232.87 325.6 232.87 325.6 234 324.26 C236.31 323.94 238.63 323.75 240.96 323.54 C242.99 323.47 242.99 323.47 244 322.26 C247.63 321.78 251.27 321.39 254.91 321.01 C258.77 320.93 258.77 320.93 262 319.26 C264.31 318.94 266.63 318.75 268.96 318.54 C270.99 318.47 270.99 318.47 272 317.26 C274.32 316.89 276.66 316.56 279 316.26 C279 315.6 279 314.94 279 314.26 C280.45 314.35 280.45 314.35 281.93 314.45 C285.82 314.45 288.89 313.38 292.51 312.06 C296.9 310.65 301.45 309.98 306 309.26 C306 308.6 306 307.94 306 307.26 C305.24 307.04 304.49 306.82 303.71 306.59 C297.24 304.66 290.88 302.56 284.56 300.2 C283.9 299.95 283.24 299.71 282.55 299.45 C279.59 298.33 276.75 297.13 273.93 295.7 C270.85 294.18 267.86 293.21 264.56 292.26 C259.85 290.9 255.49 289.2 251 287.26 C248.28 286.26 245.55 285.32 242.81 284.38 C236.65 282.25 230.63 279.91 224.64 277.35 C221.49 276.05 218.3 274.97 215.06 273.93 C213.08 273.29 211.13 272.57 209.18 271.82 C205.88 270.56 202.55 269.46 199.18 268.38 C195.21 267.08 191.46 265.61 187.68 263.82 C180.15 260.29 171.35 256.26 163 256.26 C163 255.6 163 254.94 163 254.26 C159.17 252.84 156.08 252.02 152 252.26 C152 251.6 152 250.94 152 250.26 C148.38 248.94 145.9 248.26 142 248.26 Z " fill="#260C46" transform="translate(862.00390625,70.7412109375)"/>
<path d="M0 0 C1.08 -0.01 2.17 -0.02 3.28 -0.03 C6.9 -0.05 10.51 -0.03 14.13 -0.02 C16.73 -0.03 19.32 -0.04 21.92 -0.05 C28.24 -0.08 34.55 -0.08 40.87 -0.07 C46 -0.06 51.14 -0.06 56.27 -0.07 C57.37 -0.07 57.37 -0.07 58.49 -0.07 C59.98 -0.07 61.47 -0.07 62.95 -0.08 C76.88 -0.1 90.82 -0.08 104.75 -0.06 C116.69 -0.04 128.63 -0.05 140.58 -0.09 C154.46 -0.12 168.34 -0.14 182.22 -0.13 C183.7 -0.12 185.19 -0.12 186.67 -0.12 C187.4 -0.12 188.13 -0.12 188.88 -0.12 C194 -0.12 199.13 -0.13 204.25 -0.15 C211.16 -0.17 218.06 -0.16 224.97 -0.13 C227.5 -0.12 230.04 -0.13 232.57 -0.14 C236.03 -0.16 239.49 -0.14 242.95 -0.11 C243.95 -0.13 244.95 -0.14 245.98 -0.16 C253.1 -0.04 257.64 1.98 263.04 6.64 C265.16 9.27 265.16 9.27 266.04 11.64 C265.73 13.95 265.73 13.95 265.04 15.64 C265.7 15.64 266.36 15.64 267.04 15.64 C267.06 19.61 267.08 23.58 267.09 27.55 C267.1 28.9 267.1 30.25 267.11 31.6 C267.13 33.54 267.13 35.48 267.14 37.42 C267.14 39.17 267.14 39.17 267.15 40.96 C267.04 43.64 267.04 43.64 266.04 44.64 C265.99 46.97 266 49.31 266.04 51.64 C266.08 53.97 266.08 56.31 266.04 58.64 C265.71 58.97 265.38 59.3 265.04 59.64 C264.88 60.99 264.76 62.35 264.66 63.7 C264.27 67.63 263.36 70.82 261.87 74.45 C260.25 78.73 259.19 83.21 258.04 87.64 C257.38 87.64 256.72 87.64 256.04 87.64 C256.04 88.96 256.04 90.28 256.04 91.64 C255.38 91.64 254.72 91.64 254.04 91.64 C253.87 92.53 253.87 92.53 253.71 93.43 C252.79 98 251.95 101.88 249.04 105.64 C248.38 105.64 247.72 105.64 247.04 105.64 C247.04 106.96 247.04 108.28 247.04 109.64 C246.38 109.64 245.72 109.64 245.04 109.64 C244.93 110.22 244.83 110.8 244.72 111.39 C243.93 113.99 242.79 115.53 241.1 117.64 C239.05 120.22 237.42 122.65 236.04 125.64 C235.38 125.64 234.72 125.64 234.04 125.64 C233.66 126.51 233.66 126.51 233.27 127.4 C231.91 129.88 230.4 131.54 228.41 133.54 C227.68 134.27 226.96 134.99 226.21 135.74 C225.45 136.49 224.69 137.24 223.91 138.02 C223.18 138.76 222.44 139.5 221.69 140.27 C215.34 146.59 208.55 151.78 201.04 156.64 C200.24 157.18 199.43 157.71 198.61 158.27 C192.32 162.4 185.98 165.75 179.04 168.64 C178.17 169.01 177.29 169.39 176.39 169.77 C173.79 170.73 171.79 170.8 169.04 170.64 C169.04 171.3 169.04 171.96 169.04 172.64 C160.33 175.4 152.07 177.24 143.02 178.25 C140.12 178.47 140.12 178.47 138.04 179.64 C135.5 179.74 132.98 179.78 130.44 179.77 C129.69 179.78 128.94 179.78 128.17 179.78 C126.58 179.78 125 179.78 123.42 179.77 C120.98 179.77 118.55 179.77 116.11 179.78 C114.58 179.78 113.04 179.78 111.5 179.77 C110.77 179.78 110.04 179.78 109.28 179.78 C104.15 179.76 104.15 179.76 103.04 178.64 C101.33 178.43 99.63 178.22 97.92 178.05 C89.58 177.2 81.96 175.49 74.04 172.64 C73.22 172.36 72.41 172.07 71.57 171.77 C60.31 167.54 49.44 161.65 39.04 155.64 C39.04 154.98 39.04 154.32 39.04 153.64 C38.3 153.39 37.57 153.13 36.81 152.87 C33.87 151.57 32.07 150.13 29.73 147.95 C26.87 145.33 24.01 142.76 21.04 140.27 C17.05 136.8 13.59 132.94 10.12 128.97 C8.75 127.44 7.34 125.96 5.87 124.53 C3.58 122.17 2.48 119.59 1.04 116.64 C0.54 116.15 0.05 115.65 -0.46 115.14 C-2.63 112.97 -3.62 110.38 -4.96 107.64 C-5.68 106.59 -6.41 105.54 -7.15 104.45 C-8.96 101.64 -8.96 101.64 -8.96 98.64 C-9.62 98.64 -10.28 98.64 -10.96 98.64 C-10.96 97.32 -10.96 96 -10.96 94.64 C-11.62 94.64 -12.28 94.64 -12.96 94.64 C-15.11 88.5 -16.83 82.38 -18.31 76.05 C-18.73 73.71 -18.73 73.71 -19.96 72.64 C-20 70.31 -20 67.97 -19.96 65.64 C-20.62 65.64 -21.28 65.64 -21.96 65.64 C-22.02 65 -22.08 64.37 -22.15 63.71 C-22.27 62.47 -22.27 62.47 -22.4 61.2 C-22.52 59.97 -22.52 59.97 -22.65 58.71 C-22.75 56.66 -22.75 56.66 -23.96 55.64 C-24.08 54.26 -24.13 52.87 -24.15 51.48 C-24.17 50.59 -24.19 49.71 -24.2 48.8 C-24.25 44.74 -24.29 40.68 -24.31 36.61 C-24.33 34.47 -24.36 32.33 -24.39 30.19 C-24.45 27.11 -24.47 24.02 -24.49 20.94 C-24.51 19.98 -24.53 19.03 -24.55 18.04 C-24.54 13.72 -24.5 11.39 -21.93 7.81 C-20.95 7.09 -19.97 6.38 -18.96 5.64 C-18.42 5.22 -17.87 4.79 -17.31 4.36 C-11.59 0.3 -6.89 -0.07 0 0 Z M15.04 39.64 C15.04 43.93 15.04 48.22 15.04 52.64 C15.7 52.64 16.36 52.64 17.04 52.64 C17 53.67 16.96 54.7 16.91 55.77 C17.03 59.51 17.69 62.18 19.04 65.64 C19.7 65.64 20.36 65.64 21.04 65.64 C20.93 66.64 20.93 66.64 20.82 67.65 C21.12 71.75 22.73 74.81 24.54 78.45 C24.87 79.15 25.21 79.84 25.55 80.55 C26.37 82.25 27.2 83.95 28.04 85.64 C28.7 85.64 29.36 85.64 30.04 85.64 C30.16 86.69 30.16 86.69 30.29 87.77 C31.22 91.33 32.8 93.73 35.04 96.64 C35.7 96.64 36.36 96.64 37.04 96.64 C37.04 97.3 37.04 97.96 37.04 98.64 C37.7 98.64 38.36 98.64 39.04 98.64 C39.14 99.22 39.25 99.81 39.35 100.41 C40.14 102.98 41.21 104.38 42.98 106.39 C43.5 107.01 44.02 107.62 44.57 108.25 C45.94 109.87 45.94 109.87 48.04 109.64 C48.04 110.3 48.04 110.96 48.04 111.64 C49.98 113.46 49.98 113.46 52.41 115.27 C53.63 116.21 53.63 116.21 54.87 117.18 C56.88 118.83 56.88 118.83 59.04 118.64 C59.04 119.3 59.04 119.96 59.04 120.64 C59.77 121.04 60.51 121.44 61.27 121.85 C62.24 122.38 63.22 122.91 64.23 123.45 C65.19 123.98 66.15 124.5 67.14 125.04 C69.02 126.07 70.86 127.17 72.65 128.34 C75.17 129.96 75.17 129.96 79.04 129.64 C79.04 130.3 79.04 130.96 79.04 131.64 C92.52 136.23 104.71 139.02 119.01 139.01 C121.14 139.02 123.26 139.05 125.39 139.09 C143.93 139.24 161.46 133.68 177.04 123.64 C177.87 123.15 178.71 122.65 179.57 122.14 C186.63 117.86 192.52 112.36 198.35 106.58 C198.95 105.99 199.55 105.4 200.16 104.79 C203.62 101.31 206.44 97.83 209.04 93.64 C210.03 92.22 210.03 92.22 211.04 90.77 C215.44 84.17 215.44 84.17 217.04 76.64 C217.7 76.64 218.36 76.64 219.04 76.64 C219.35 75.68 219.35 75.68 219.66 74.71 C220.06 73.47 220.06 73.47 220.48 72.2 C220.74 71.38 221.01 70.56 221.28 69.71 C222.04 67.64 222.04 67.64 223.04 66.64 C223.08 64.98 223.08 63.31 223.04 61.64 C223.7 61.64 224.36 61.64 225.04 61.64 C226.1 54.68 227.04 47.7 227.04 40.64 C225.24 38.84 222.78 39.52 220.39 39.51 C219.16 39.52 219.16 39.52 217.91 39.52 C217.04 39.52 216.18 39.52 215.29 39.52 C212.38 39.52 209.47 39.52 206.56 39.53 C204.48 39.53 202.4 39.53 200.32 39.53 C194.66 39.53 188.99 39.53 183.33 39.54 C177.42 39.55 171.51 39.55 165.6 39.55 C154.39 39.55 143.19 39.56 131.99 39.57 C119.24 39.58 106.49 39.59 93.74 39.59 C67.51 39.6 41.27 39.62 15.04 39.64 Z " fill="#260C46" transform="translate(427.96189880371094,660.3583526611328)"/>
<path d="M0 0 C0.68 -0.01 1.35 -0.01 2.05 -0.02 C8.12 0.2 11.5 2.83 16.06 6.5 C19.99 11.41 20.11 17.54 20.08 23.6 C20.08 24.69 20.08 24.69 20.08 25.81 C20.09 27.35 20.08 28.88 20.07 30.41 C20.06 32.75 20.07 35.08 20.09 37.42 C20.08 38.91 20.08 40.41 20.08 41.91 C20.08 42.6 20.09 43.29 20.09 44 C20.05 48.26 19.36 51.72 17.81 55.69 C17.15 55.69 16.49 55.69 15.81 55.69 C15.59 56.26 15.36 56.84 15.12 57.44 C12.59 61.79 8.6 64.35 3.81 65.69 C-4.08 66.46 -8.73 63.99 -15.19 59.69 C-15.85 59.03 -16.51 58.37 -17.19 57.69 C-17.19 56.37 -17.19 55.05 -17.19 53.69 C-17.85 53.69 -18.51 53.69 -19.19 53.69 C-19.19 39.83 -19.19 25.97 -19.19 11.69 C-18.53 11.69 -17.87 11.69 -17.19 11.69 C-17.19 10.37 -17.19 9.05 -17.19 7.69 C-12.8 1.7 -7.17 0.03 0 0 Z " fill="#260C46" transform="translate(449.1875,528.3125)"/>
<path d="M0 0 C4.65 2.44 7.13 5.7 10 10 C10.3 11.97 10.3 11.97 10.37 14.24 C10.4 15.09 10.43 15.94 10.46 16.82 C10.53 20.72 10.61 24.63 10.65 28.53 C10.67 30.58 10.72 32.64 10.79 34.69 C11.35 51.56 11.35 51.56 8.16 57.33 C3.25 62.48 -1.81 64.69 -8.88 65.38 C-14.67 65.22 -19.17 62.56 -23.5 58.88 C-25 57 -25 57 -25 55 C-25.66 55 -26.32 55 -27 55 C-27 39.82 -27 24.64 -27 9 C-26.34 9 -25.68 9 -25 9 C-24.89 8.4 -24.77 7.79 -24.66 7.17 C-23.76 4.22 -22.16 2.69 -19.62 1 C-13.56 -1.31 -6.32 -1.31 0 0 Z " fill="#260C46" transform="translate(645,529)"/>
<path d="M0 0 C1.52 1.02 1.52 1.02 3.89 3.21 C4.61 3.64 5.33 4.07 6.08 4.52 C9.54 7.75 10.69 11.32 11.18 15.9 C11.37 22.3 10.8 26.82 6.5 31.83 C2.8 35.73 0.07 38.03 -5.46 38.47 C-6.68 38.47 -7.91 38.46 -9.17 38.46 C-10.4 38.46 -11.63 38.47 -12.89 38.47 C-16.11 38.21 -16.11 38.21 -19.11 36.21 C-19.11 35.55 -19.11 34.89 -19.11 34.21 C-19.69 34.12 -20.26 34.04 -20.86 33.96 C-23.83 32.97 -25.12 31.6 -27.11 29.21 C-29.85 23.45 -30.02 17.32 -28.64 11.11 C-26.67 5.78 -23.03 3.05 -18.35 0.09 C-13.06 -2 -5.32 -2 0 0 Z " fill="#260C46" transform="translate(707.109375,943.79296875)"/>
<path d="M0 0 C3.41 1.86 6.42 3.57 8.75 6.75 C8.75 7.74 8.75 8.73 8.75 9.75 C9.41 9.75 10.07 9.75 10.75 9.75 C11.57 27.22 11.57 27.22 6.75 32.75 C2.02 37.17 -3.11 38.63 -9.5 38.95 C-15.09 38.54 -19.41 36.26 -23.69 32.75 C-28.72 26.31 -28.07 18.63 -27.53 10.77 C-27.04 7.24 -25.74 5.23 -23.09 2.94 C-22.48 2.55 -21.87 2.16 -21.25 1.75 C-20.62 1.33 -20 0.9 -19.35 0.46 C-12.57 -3.49 -6.94 -3.29 0 0 Z " fill="#260C46" transform="translate(694.25,1007.25)"/>
<path d="M0 0 C3.16 1.16 5.72 2.5 8 5 C8.7 7.17 8.7 7.17 9 9 C9.66 9 10.32 9 11 9 C13.69 15.74 13.8 21.33 11.56 28.12 C9.51 32.72 7.12 35.45 2.78 38.01 C-3.1 40.11 -10.61 40.44 -16.42 37.97 C-17.2 37.49 -17.2 37.49 -18 37 C-18 36.34 -18 35.68 -18 35 C-18.93 34.57 -18.93 34.57 -19.88 34.12 C-22 33 -22 33 -24 31 C-24.12 28.38 -24.12 28.38 -24 26 C-24.66 26 -25.32 26 -26 26 C-26 21.05 -26 16.1 -26 11 C-25.34 11 -24.68 11 -24 11 C-24 9.68 -24 8.36 -24 7 C-22.32 5.33 -22.32 5.33 -20.12 3.81 C-19.41 3.3 -18.69 2.79 -17.95 2.27 C-12.52 -1.27 -6.28 -0.62 0 0 Z " fill="#260C46" transform="translate(642,956)"/>
</svg>
